<?xml version="1.0" encoding="iso-8859-1" ?>
<svg version="1.1" xmlns="http://www.w3.org/2000/svg" xmlns:xlink="http://www.w3.org/1999/xlink" 
    viewBox="0 0 1600 1200" width="auto" height="auto">
    
    
    <!-- ITEM 0 -->
    <g>
        <defs>
            <clipPath id="clip-path-id-viewbox-item-0">
                <rect x="0.0" y="0.0" width="217.509" height="306.733"/>
            </clipPath>
        </defs>
        <g transform="translate(113.0 129.0) rotate(0.0 350.0 492.5) scale(3.21825763531624 3.211261911825594)">
            <g clip-path="url(#clip-path-id-viewbox-item-0)" transform="translate(-0.0 -0.0)">
                <title>stars</title><g id="Layer_2-i0" data-name="Layer 2"><g id="stars-i0"><path d="M217.009,236a32.852,32.852,0,0,0-7.9-1.86c-1.7-.2-3.39-.3-5.09-.33-.08-1.66-.21-3.32-.41-5a48.9,48.9,0,0,0-1.51-7.91.93.93,0,0,0-1.79,0,49.112,49.112,0,0,0-1.51,7.91c-.2,1.69-.33,3.38-.42,5.08-1.69.08-3.38.21-5.08.41a47.911,47.911,0,0,0-7.9,1.52,1,1,0,0,0-.63.63.931.931,0,0,0,.63,1.15,47.807,47.807,0,0,0,7.9,1.52c1.66.19,3.32.32,5,.41a41.277,41.277,0,0,0,.34,5.08,31.792,31.792,0,0,0,1.86,7.9.758.758,0,0,0,.44.44.78.78,0,0,0,1-.44,31.792,31.792,0,0,0,1.86-7.9,48.876,48.876,0,0,0,.33-5,42.115,42.115,0,0,0,5-.33,32.361,32.361,0,0,0,7.9-1.87.8.8,0,0,0,.44-.43A.79.79,0,0,0,217.009,236Z" fill="#e3ce63"></path><path d="M32.279,73.338a31.967,31.967,0,0,0-7.91-1.86,50.734,50.734,0,0,0-5.08-.34c-.09-1.66-.22-3.32-.41-5a47.807,47.807,0,0,0-1.52-7.9.911.911,0,0,0-.63-.63.921.921,0,0,0-1.146.616l0,.014a47.911,47.911,0,0,0-1.52,7.9c-.19,1.69-.33,3.39-.41,5.08-1.69.08-3.39.22-5.08.41a47.911,47.911,0,0,0-7.9,1.52,1,1,0,0,0-.63.63.92.92,0,0,0,.616,1.146l.014,0a47.807,47.807,0,0,0,7.9,1.52c1.66.19,3.32.32,5,.41q.043,2.547.34,5.08a32.057,32.057,0,0,0,1.86,7.91.758.758,0,0,0,.43.43.78.78,0,0,0,1-.43,32.836,32.836,0,0,0,1.86-7.91c.2-1.66.29-3.32.33-5a42.254,42.254,0,0,0,5-.33,32.872,32.872,0,0,0,7.91-1.86.79.79,0,0,0,0-1.45Z" fill="#e3ce63"></path><path d="M121.789,205.548a31.967,31.967,0,0,0-7.91-1.86,50.734,50.734,0,0,0-5.08-.34c-.09-1.66-.22-3.32-.41-5a47.807,47.807,0,0,0-1.52-7.9.911.911,0,0,0-.63-.63.921.921,0,0,0-1.146.616l0,.014a46.833,46.833,0,0,0-1.51,7.9c-.2,1.69-.34,3.39-.42,5.08-1.69.09-3.39.22-5.08.42a49.013,49.013,0,0,0-7.9,1.51,1,1,0,0,0-.63.63.92.92,0,0,0,.616,1.146l.014,0a47.807,47.807,0,0,0,7.9,1.52c1.66.19,3.32.33,5,.41a41.439,41.439,0,0,0,.34,5.09,31.98,31.98,0,0,0,1.86,7.9.758.758,0,0,0,.43.43.78.78,0,0,0,1-.43,32.9,32.9,0,0,0,1.86-7.9c.2-1.67.29-3.33.33-5a49.162,49.162,0,0,0,5-.33,32.442,32.442,0,0,0,7.91-1.86.79.79,0,0,0,0-1.45Z" fill="#e3ce63"></path><path d="M184.419,201.928a9.2,9.2,0,0,0-3.69-1.86,10.435,10.435,0,0,0-1.08-.22c-.06-.29-.12-.59-.2-.88a12.794,12.794,0,0,0-1.51-3.69,1.061,1.061,0,0,0-.34-.33,1,1,0,0,0-1.391.253.906.906,0,0,0-.049.077,12.569,12.569,0,0,0-1.52,3.69c-.09.35-.16.7-.23,1.05-.35.07-.7.14-1,.23a12.569,12.569,0,0,0-3.69,1.52,1.02,1.02,0,0,0-.33.33,1.05,1.05,0,0,0,.328,1.448l0,0a12.794,12.794,0,0,0,3.69,1.51c.29.08.59.14.88.2a10.435,10.435,0,0,0,.22,1.08,9.319,9.319,0,0,0,1.86,3.69l.11.11a1,1,0,0,0,1.34-.11,9.063,9.063,0,0,0,1.86-3.69c.08-.3.15-.6.2-.9a3.642,3.642,0,0,0,.9-.2,9.063,9.063,0,0,0,3.69-1.86,1.142,1.142,0,0,0,.11-.11A1,1,0,0,0,184.419,201.928Z" fill="#e3ce63"></path><path d="M148.419,91.478a12.569,12.569,0,0,0-3.69-1.52c-.29-.07-.59-.14-.88-.19a8.416,8.416,0,0,0-.22-1.09,8.994,8.994,0,0,0-1.86-3.68l-.11-.11a1,1,0,0,0-1.34.11,9.3,9.3,0,0,0-1.86,3.68c-.08.3-.14.61-.19.91a9.7,9.7,0,0,0-4.6,2.06l-.1.1a1,1,0,0,0,.1,1.34,9.222,9.222,0,0,0,3.69,1.87,10.45,10.45,0,0,0,1.08.21c.06.3.13.59.2.89a12.631,12.631,0,0,0,1.52,3.68,1,1,0,0,0,1.346.434.99.99,0,0,0,.434-.434,12.819,12.819,0,0,0,1.51-3.68c.09-.36.17-.71.23-1.06.35-.06.7-.14,1-.22a12.569,12.569,0,0,0,3.69-1.52.983.983,0,0,0,.33-.33A1.05,1.05,0,0,0,148.419,91.478Z" fill="#e3ce63"></path><path d="M45.149,156.758a10.435,10.435,0,0,0-1.08-.22c-.06-.29-.13-.59-.2-.88a12.542,12.542,0,0,0-1.52-3.69,1,1,0,0,0-.33-.33,1.05,1.05,0,0,0-1.448.327l0,0a12.822,12.822,0,0,0-1.51,3.69c-.09.35-.16.7-.23,1.05-.35.07-.7.14-1,.23a12.794,12.794,0,0,0-3.69,1.51,1.071,1.071,0,0,0-.33.34,1.05,1.05,0,0,0,.328,1.448l0,0a12.794,12.794,0,0,0,3.69,1.51c.29.08.59.14.88.2a8.268,8.268,0,0,0,.22,1.08,9.076,9.076,0,0,0,1.86,3.69l.11.1a.941.941,0,0,0,1.327-.084l.013-.016a9.2,9.2,0,0,0,1.86-3.69c.08-.3.14-.6.2-.9a3.642,3.642,0,0,0,.9-.2,9.063,9.063,0,0,0,3.69-1.86l.1-.11a1,1,0,0,0-.1-1.34A9.078,9.078,0,0,0,45.149,156.758Z" fill="#e3ce63"></path><path d="M141.739,296.478a10.621,10.621,0,0,0-1.09-.22,3.961,3.961,0,0,0-.19-.88,12.542,12.542,0,0,0-1.52-3.69,1,1,0,0,0-.33-.33,1.05,1.05,0,0,0-1.448.328l0,0a12.569,12.569,0,0,0-1.52,3.69c-.08.35-.16.7-.22,1.05-.35.07-.7.14-1.06.23a12.859,12.859,0,0,0-3.68,1.51,1.223,1.223,0,0,0-.34.34,1.06,1.06,0,0,0,.34,1.45,12.859,12.859,0,0,0,3.68,1.51c.3.08.59.14.89.2a10.4,10.4,0,0,0,.21,1.08,9.234,9.234,0,0,0,1.88,3.67l.1.1a.94.94,0,0,0,1.3-.1,9.215,9.215,0,0,0,1.87-3.69c.08-.3.14-.6.19-.9.3-.05.6-.12.91-.2a8.994,8.994,0,0,0,3.68-1.86l.11-.11a1,1,0,0,0-.11-1.34A8.994,8.994,0,0,0,141.739,296.478Z" fill="#e3ce63"></path><path d="M127.739,149.878a7.109,7.109,0,0,0,.93.49v.06a5.61,5.61,0,0,0,1.87,2.36,1.218,1.218,0,0,0,1.44,0,13.629,13.629,0,0,1,4-4,1.209,1.209,0,0,0,0-1.45,5.649,5.649,0,0,0-2.36-1.86h-.06a6.929,6.929,0,0,0-.49-.93,5.872,5.872,0,0,0-.92-1.18,1.271,1.271,0,0,0-1.78,0,5.945,5.945,0,0,0-.92,1.18,6.175,6.175,0,0,0-.58,1.14,6.923,6.923,0,0,0-1.15.58,6.463,6.463,0,0,0-1.18.93,1.28,1.28,0,0,0,0,1.78A5.92,5.92,0,0,0,127.739,149.878Z" fill="#e3ce63"></path><path d="M115.729,55.568a5.884,5.884,0,0,0-.93-.48.409.409,0,0,0,0-.07,5.416,5.416,0,0,0-1.86-2.35,1.2,1.2,0,0,0-1.45,0,5.378,5.378,0,0,0-1.79,2.2,5.429,5.429,0,0,0-2.2,1.79,1.2,1.2,0,0,0,0,1.45,5.537,5.537,0,0,0,2.36,1.86h.06a5.884,5.884,0,0,0,.48.93,6.334,6.334,0,0,0,.92,1.18,1.279,1.279,0,0,0,1.79,0,6.293,6.293,0,0,0,.92-1.18,6.114,6.114,0,0,0,.58-1.14,6.752,6.752,0,0,0,1.14-.58,6.031,6.031,0,0,0,1.18-.93,1.26,1.26,0,0,0,0-1.78A5.639,5.639,0,0,0,115.729,55.568Z" fill="#e3ce63"></path><path d="M78.669,2.478h-.06a5.129,5.129,0,0,0-.49-.93A5.652,5.652,0,0,0,77.2.368a1.26,1.26,0,0,0-1.78,0,5.686,5.686,0,0,0-.92,1.18,6.175,6.175,0,0,0-.58,1.14,6.2,6.2,0,0,0-1.15.58,6.684,6.684,0,0,0-1.18.92,1.28,1.28,0,0,0,0,1.78,6.312,6.312,0,0,0,1.18.93,5.927,5.927,0,0,0,.93.48.122.122,0,0,1,0,.06,5.487,5.487,0,0,0,1.87,2.36,1.191,1.191,0,0,0,1.44,0,5.461,5.461,0,0,0,1.8-2.2,5.5,5.5,0,0,0,2.2-1.79,1.209,1.209,0,0,0,0-1.45A5.437,5.437,0,0,0,78.669,2.478Z" fill="#e3ce63"></path><path d="M64.539,120.478h-.06a6.929,6.929,0,0,0-.49-.93,6.22,6.22,0,0,0-.92-1.18,1.28,1.28,0,0,0-1.78,0,6.75,6.75,0,0,0-.93,1.18,6.846,6.846,0,0,0-.58,1.15,6.175,6.175,0,0,0-1.14.58,5.974,5.974,0,0,0-1.18.92,1.271,1.271,0,0,0,0,1.78,7.2,7.2,0,0,0,2.11,1.41v.06a5.586,5.586,0,0,0,1.86,2.36,1.209,1.209,0,0,0,1.45,0,5.457,5.457,0,0,0,1.79-2.21,5.365,5.365,0,0,0,2.2-1.79,1.188,1.188,0,0,0,0-1.44A5.522,5.522,0,0,0,64.539,120.478Z" fill="#e3ce63"></path><path d="M34.4,241.218h-.06a6.991,6.991,0,0,0-.49-.94,6.22,6.22,0,0,0-.92-1.18,1.28,1.28,0,0,0-1.78,0,6.22,6.22,0,0,0-.92,1.18,6.524,6.524,0,0,0-.58,1.15,7.155,7.155,0,0,0-2.33,1.5,1.28,1.28,0,0,0,0,1.78,6.463,6.463,0,0,0,1.18.93,5.927,5.927,0,0,0,.93.48v.06a5.586,5.586,0,0,0,1.86,2.36,1.209,1.209,0,0,0,1.45,0,13.761,13.761,0,0,1,4-4,1.209,1.209,0,0,0,0-1.45A5.5,5.5,0,0,0,34.4,241.218Z" fill="#e3ce63"></path></g></g>
            </g>
        </g>
    </g>
    
    <!-- ITEM 1 -->
    <g>
        <defs>
            <clipPath id="clip-path-id-viewbox-item-1">
                <rect x="0.0" y="0.0" width="1265.045" height="1175.0"/>
            </clipPath>
        </defs>
        <g transform="translate(911.0 333.0) rotate(0.0 -307.5 285.5) scale(-0.4861487140773648 0.48595744680851066)">
            <g clip-path="url(#clip-path-id-viewbox-item-1)" transform="translate(-0.0 -0.0)">
                
<g>
	<path style="fill:#55d4ab;" d="M1186.592,771.907c0,0-49.822,22.149-50.826,23.153c-0.451,0.451-2.817,7.589-5.286,15.312   C863.34,749.473,607.379,701.947,395.919,693.243c-14.308-0.582-28.175,4.796-38.55,14.649   C281.272,780.076,169.193,855.17,39.133,930.183L0.101,908.128c0,0-1.003,27.132,3.311,51.936   c2.99,17.198,8.549,33.272,18.783,38.409c2.208,1.124,4.616,1.727,7.265,1.727c261.303,31.908,520.961,97.208,755.353,170.877   c29.841,9.391,62.431,1.626,84.887-20.148l314.483-304.891c2.709-2.631,4.111-5.892,4.406-9.188   C1193.282,817.206,1186.592,778.446,1186.592,771.907z"></path>
	<path style="fill:#f7eede;" d="M1175.262,758.929C891.297,692.927,617.693,640.245,393.91,631.04   c-14.305-0.588-28.165,4.782-38.553,14.635c-80.235,76.103-200.434,155.428-339.54,234.49   c-26.064,14.814-18.12,54.198,11.638,57.832c261.304,31.906,520.955,97.211,755.35,170.876c29.849,9.381,62.426,1.63,84.89-20.149   l314.49-304.902C1190.551,775.711,1186.611,761.567,1175.262,758.929z"></path>
	<g>
		<path style="fill:#55d4ab;" d="M361.277,51.348L361.277,51.348c3.211-8.83,11.84-14.449,21.272-14.047    c89.503,4.616,412.795,26.69,787.06,120.206c9.031,2.207,15.452,10.034,16.255,19.064c5.218,65.421,23.078,328.711,1.003,575.345    c-0.803,9.833-8.429,17.86-18.262,19.265c-1.806,0-3.411,0.201-5.218,0.201c-1.003,0-2.007-0.201-3.01-0.401    c-330.116-77.863-691.136-117.999-781.04-127.431c-11.639-1.204-20.269-11.639-19.064-23.279c21.473-236.6,5.82-483.233,0-559.893    C359.872,57.368,360.273,54.358,361.277,51.348z M1150.143,697.331c13.245-196.865,3.411-394.132-2.81-485.441    c-0.803-10.837-8.428-19.867-18.864-22.476C823.037,115.766,555.734,89.878,430.711,81.048    c-13.646-1.003-25.486,9.432-26.49,23.078c0,1.003,0,2.207,0,3.211c6.02,98.332,13.646,286.167,0,473.601    c-1.003,13.245,8.83,25.085,22.075,26.49c129.438,14.449,416.006,50.37,693.745,112.179c13.446,3.01,26.69-5.418,29.7-18.864    C1149.942,699.74,1150.143,698.535,1150.143,697.331z"></path>
		<path style="fill:#d987d9;" d="M731.729,665.624c5.017-0.602,10.235-0.602,15.252-0.201c5.017,0.401,10.034,0.803,15.051,1.605    c5.017,0.803,9.833,1.806,14.85,3.01s9.833,2.81,14.449,4.816c2.609,1.204,3.612,4.014,2.609,6.622    c-0.803,1.605-2.207,2.81-4.014,3.01l0,0c-5.017,0.401-10.235,0.602-15.252,0.201c-5.017-0.401-10.034-1.003-15.051-1.605    c-5.017-0.602-9.833-1.806-14.85-3.01c-5.017-1.204-9.833-2.81-14.449-5.017l0,0c-2.408-1.003-3.411-3.813-2.408-6.422    C728.719,666.828,730.123,665.825,731.729,665.624L731.729,665.624z"></path>
		<path style="fill:#f7eede;" d="M1253.693,139.446c5.017,65.421,22.476,331.521,0.602,578.154    c-2.81,31.707-41.139,51.574-85.69,53.782c9.833-1.405,17.258-9.432,18.262-19.265c21.874-246.634,4.014-509.924-1.003-575.345    c-0.803-9.231-7.224-16.857-16.255-19.064C795.344,64.191,472.051,42.117,382.548,37.501c-9.432-0.401-17.86,5.218-21.272,13.847    c12.241-41.139,57.595-52.979,89.302-51.173c89.503,4.616,412.795,26.69,786.86,120.206    C1246.469,122.589,1253.091,130.214,1253.693,139.446z"></path>
		<path style="fill:#f7eede;" d="M1147.334,211.89c6.221,91.108,16.054,288.375,2.81,485.441    c-1.003,13.646-12.844,24.081-26.49,23.078c-1.204,0-2.408-0.201-3.612-0.602c-277.739-61.809-564.107-97.73-693.745-112.179    c-13.245-1.405-23.078-13.044-22.075-26.49c13.646-187.434,6.02-375.268,0-473.601c-0.803-13.646,9.633-25.486,23.279-26.289    c1.003,0,2.207,0,3.211,0c124.822,8.83,392.125,34.717,697.759,108.366C1138.905,192.224,1146.531,201.255,1147.334,211.89z"></path>
		<path style="fill:#55d4ab;" d="M1197.102,151.486c2.007-3.01,4.415-5.619,7.224-7.626c2.81-2.007,5.619-3.813,8.83-5.218    c3.211-1.405,6.422-2.408,9.833-3.01c3.412-0.602,7.024-0.602,10.435,0c2.81,0.602,4.616,3.211,4.214,6.02    c-0.201,1.204-1.003,2.408-2.007,3.211l-0.401,0.201c-2.408,1.806-5.017,3.211-7.827,4.616c-2.609,1.405-5.218,2.609-7.826,3.612    c-2.609,1.003-5.418,2.207-8.228,3.211c-2.81,1.003-5.82,1.806-8.83,2.408l-0.602,0.201c-2.609,0.401-5.218-1.405-5.619-4.014    C1196.299,153.694,1196.5,152.49,1197.102,151.486L1197.102,151.486z"></path>
	</g>
	<g>
		<g>
			<path style="fill:#55d4ab;" d="M401.054,683.34c-4.255-0.75-8.699-1.222-12.285-0.57c-5.328,0.967-7.834,4.222-10.22,6.116     c-4.784,3.827-9.75,7.631-14.629,11.442c-2.871,2.25-5.838,4.749-4.507,7.023c1.434,2.486,7.442,3.796,13.194,4.81     c0.34,0.06,0.679,0.119,1.016,0.177c10.08,1.736,20.175,3.474,30.279,5.206c4.164,0.718,8.76,1.445,13.446,0.864     c6.496-0.811,10.194-3.706,12.958-6.258c5.323-4.873,10.631-9.749,15.938-14.624c1.539-1.411,3.114-2.981,2.08-4.346     c-1.071-1.401-4.567-2.13-7.89-2.716c-0.147-0.026-0.292-0.051-0.438-0.077c-9.38-1.621-18.76-3.241-28.115-4.866     c-0.082-0.014-0.165-0.028-0.249-0.043c-1.388-0.245-3.031-0.598-4.792-0.979C405.027,684.11,403.062,683.694,401.054,683.34"></path>
			<path style="fill:#55d4ab;" d="M500.397,700.857c-4.25-0.749-8.693-1.221-12.28-0.569c-5.328,0.967-7.85,4.219-10.22,6.116     c-4.8,3.825-9.75,7.631-14.629,11.442c-2.871,2.25-5.853,4.746-4.523,7.021c1.449,2.488,7.444,3.796,13.194,4.81     c0.34,0.06,0.678,0.119,1.015,0.177c10.095,1.738,20.191,3.477,30.295,5.209c4.164,0.718,8.76,1.445,13.43,0.861     c6.512-0.808,10.194-3.706,12.974-6.255c5.308-4.876,10.615-9.751,15.923-14.627c1.539-1.411,3.114-2.981,2.08-4.346     c-1.071-1.401-4.567-2.13-7.889-2.716c-0.147-0.026-0.292-0.051-0.438-0.077c-9.38-1.621-18.744-3.238-28.115-4.866     c-0.082-0.014-0.165-0.028-0.248-0.043c-1.386-0.244-3.016-0.595-4.792-0.979C504.365,701.626,502.402,701.211,500.397,700.857"></path>
			<path style="fill:#55d4ab;" d="M599.729,718.372c-4.25-0.749-8.693-1.221-12.28-0.569c-5.328,0.967-7.834,4.222-10.22,6.116     c-4.784,3.827-9.75,7.631-14.629,11.442c-2.871,2.25-5.838,4.749-4.507,7.023c1.434,2.486,7.442,3.796,13.194,4.81     c0.34,0.06,0.679,0.119,1.016,0.177c10.08,1.736,20.175,3.474,30.279,5.206c4.164,0.718,8.76,1.445,13.446,0.864     c6.496-0.811,10.194-3.706,12.958-6.258c5.323-4.873,10.631-9.749,15.938-14.624c1.524-1.413,3.115-2.981,2.08-4.346     c-1.086-1.404-4.568-2.13-7.89-2.716c-0.147-0.026-0.292-0.051-0.438-0.077c-9.38-1.621-18.759-3.241-28.13-4.869     c-0.082-0.014-0.165-0.028-0.249-0.043c-1.386-0.244-3.016-0.595-4.792-0.979C603.697,719.141,601.734,718.726,599.729,718.372"></path>
			<path style="fill:#55d4ab;" d="M699.077,735.89c-4.25-0.749-8.693-1.221-12.28-0.569c-5.328,0.967-7.85,4.219-10.22,6.116     c-4.8,3.825-9.75,7.631-14.629,11.442c-2.871,2.25-5.853,4.746-4.523,7.021c1.449,2.488,7.444,3.796,13.194,4.81     c0.34,0.06,0.678,0.119,1.016,0.177c10.095,1.738,20.191,3.477,30.279,5.206c4.164,0.718,8.775,1.447,13.446,0.864     c6.512-0.808,10.194-3.706,12.974-6.255c5.308-4.876,10.615-9.751,15.923-14.627c1.539-1.411,3.114-2.981,2.08-4.346     c-1.071-1.401-4.567-2.13-7.889-2.716c-0.147-0.026-0.292-0.051-0.438-0.077c-9.38-1.621-18.744-3.238-28.115-4.866     c-0.082-0.014-0.165-0.028-0.248-0.043c-1.386-0.244-3.016-0.595-4.792-0.979C703.045,736.659,701.082,736.243,699.077,735.89"></path>
			<path style="fill:#55d4ab;" d="M798.409,753.405c-4.25-0.749-8.693-1.221-12.28-0.569c-5.328,0.967-7.834,4.222-10.22,6.116     c-4.784,3.827-9.75,7.631-14.629,11.442c-2.871,2.25-5.837,4.749-4.507,7.023c1.434,2.486,7.442,3.796,13.194,4.81     c0.34,0.06,0.679,0.119,1.016,0.177c10.08,1.736,20.175,3.474,30.279,5.206c4.164,0.718,8.76,1.445,13.446,0.864     c6.496-0.811,10.194-3.706,12.958-6.258c5.308-4.876,10.631-9.749,15.939-14.624c1.524-1.413,3.114-2.981,2.08-4.346     c-1.086-1.404-4.568-2.13-7.903-2.718c-0.147-0.026-0.294-0.052-0.44-0.077c-9.364-1.618-18.744-3.238-28.115-4.866     c-0.082-0.014-0.165-0.028-0.249-0.043c-1.386-0.244-3.016-0.595-4.792-0.979C802.377,754.174,800.414,753.758,798.409,753.405"></path>
			<path style="fill:#55d4ab;" d="M897.757,770.922c-4.25-0.749-8.693-1.221-12.28-0.569c-5.328,0.967-7.85,4.219-10.22,6.116     c-4.8,3.825-9.766,7.628-14.629,11.442c-2.871,2.25-5.853,4.746-4.523,7.021c1.449,2.488,7.444,3.796,13.194,4.81     c0.34,0.06,0.678,0.119,1.016,0.177c10.095,1.738,20.191,3.477,30.279,5.206c4.164,0.718,8.775,1.447,13.446,0.864     c6.496-0.811,10.194-3.706,12.974-6.255c5.308-4.876,10.615-9.751,15.923-14.627c1.539-1.411,3.114-2.981,2.08-4.346     c-1.071-1.401-4.567-2.13-7.89-2.716c-0.147-0.026-0.292-0.051-0.438-0.077c-9.38-1.621-18.744-3.238-28.115-4.866     c-0.082-0.014-0.165-0.028-0.249-0.043c-1.386-0.244-3.016-0.595-4.792-0.979C901.725,771.691,899.762,771.276,897.757,770.922"></path>
			<path style="fill:#55d4ab;" d="M997.089,788.437c-4.25-0.749-8.694-1.221-12.28-0.569c-5.328,0.967-7.834,4.222-10.22,6.116     c-4.784,3.827-9.75,7.631-14.629,11.442c-2.871,2.25-5.838,4.749-4.507,7.023c1.434,2.486,7.428,3.793,13.192,4.809     c0.341,0.06,0.68,0.119,1.018,0.177c10.08,1.736,20.175,3.474,30.279,5.206c4.164,0.718,8.76,1.445,13.446,0.864     c6.496-0.811,10.193-3.706,12.958-6.258c5.308-4.876,10.631-9.749,15.939-14.624c1.524-1.413,3.115-2.981,2.08-4.346     c-1.086-1.404-4.568-2.13-7.903-2.718c-0.147-0.026-0.293-0.052-0.44-0.077c-9.364-1.618-18.744-3.238-28.115-4.866     c-0.082-0.014-0.165-0.028-0.249-0.043c-1.386-0.244-3.016-0.595-4.792-0.979C1001.057,789.206,999.094,788.791,997.089,788.437"></path>
			<path style="fill:#55d4ab;" d="M295.639,765.889c-4.25-0.749-8.693-1.221-12.28-0.57c-5.328,0.967-7.85,4.219-10.22,6.116     c-4.8,3.825-9.75,7.631-14.629,11.442c-2.871,2.25-5.846,4.756-4.531,7.027c1.457,2.482,7.452,3.789,13.202,4.803     c0.34,0.06,0.679,0.119,1.017,0.177c10.095,1.738,20.191,3.477,30.286,5.215c4.164,0.718,8.769,1.438,13.455,0.857     c6.496-0.811,10.178-3.709,12.958-6.258c5.308-4.876,10.615-9.751,15.93-14.618c1.533-1.42,3.123-2.988,2.08-4.346     c-1.078-1.41-4.56-2.137-7.895-2.725c-0.147-0.026-0.293-0.051-0.439-0.077c-9.364-1.618-18.744-3.238-28.115-4.866     c-0.082-0.014-0.165-0.028-0.249-0.043c-1.386-0.244-3.016-0.595-4.792-0.979C299.607,766.658,297.644,766.243,295.639,765.889"></path>
			<path style="fill:#55d4ab;" d="M394.977,783.405c-4.254-0.75-8.694-1.221-12.27-0.568c-5.328,0.967-7.85,4.219-10.22,6.116     c-4.8,3.825-9.766,7.628-14.629,11.442c-2.887,2.247-5.862,4.753-4.532,7.027c1.457,2.482,7.452,3.789,13.202,4.803     c0.34,0.06,0.679,0.119,1.017,0.177c10.095,1.738,20.191,3.477,30.27,5.213c4.164,0.718,8.768,1.438,13.455,0.857     c6.496-0.811,10.194-3.706,12.974-6.255c5.308-4.876,10.615-9.751,15.914-14.62c1.548-1.417,3.123-2.988,2.08-4.346     c-1.063-1.407-4.558-2.136-7.881-2.722c-0.146-0.026-0.292-0.051-0.438-0.077c-9.38-1.621-18.759-3.241-28.115-4.866     c-0.082-0.014-0.165-0.028-0.249-0.043c-1.388-0.245-3.031-0.598-4.792-0.979C398.95,784.175,396.984,783.759,394.977,783.405"></path>
			<path style="fill:#55d4ab;" d="M494.319,800.922c-4.25-0.749-8.693-1.221-12.28-0.57c-5.328,0.967-7.85,4.219-10.22,6.116     c-4.8,3.825-9.75,7.631-14.629,11.442c-2.871,2.25-5.846,4.756-4.532,7.027c1.457,2.482,7.452,3.789,13.202,4.803     c0.34,0.06,0.679,0.119,1.017,0.177c9.043,1.553,236.953,41.706,291.901,51.354c1.683,0.39,3.484,0.733,5.26,1.046     c0.29,0.051,0.579,0.101,0.867,0.151c10.095,1.738,20.175,3.474,30.27,5.213c4.164,0.718,8.768,1.438,13.455,0.857     c6.496-0.811,10.194-3.706,12.974-6.255c5.308-4.876,10.615-9.751,15.914-14.62c1.548-1.417,3.123-2.988,2.08-4.346     c-1.063-1.407-4.558-2.136-7.881-2.722c-0.146-0.026-0.292-0.051-0.437-0.077c-7.062-1.22-14.109-2.438-21.156-3.655     c-1.185-0.276-2.449-0.507-3.689-0.725c-0.731-0.121-3.118-0.542-6.887-1.206c-2.174-0.462-4.632-1.004-7.159-1.45     c-1.727-0.305-3.486-0.564-5.209-0.722c-65.484-11.522-274.006-48.265-282.042-49.657c-0.082-0.014-0.165-0.028-0.249-0.043     c-1.386-0.244-3.016-0.595-4.792-0.979C498.287,801.691,496.324,801.275,494.319,800.922"></path>
			<path style="fill:#d987d9;" d="M389.844,862.061c-3.287-0.58-7.389-0.433-12.911,2.169c-8.173,3.846-18.021,12.392-24.819,17.638     c-13.678,10.569-27.499,21.128-41.248,31.693c-8.108,6.23-16.872,13.094-20.207,18.176c-3.634,5.536,0.426,6.968,4.86,7.75     c0.275,0.049,0.552,0.095,0.828,0.139c7.072,1.139,183.228,32.1,225.762,39.492c1.086,0.445,2.402,0.746,3.749,0.984     c0.245,0.043,0.49,0.084,0.735,0.124c7.882,1.273,15.78,2.549,23.671,3.816c3.257,0.524,6.991,0.95,13.607-1.797     c9.212-3.813,19.637-11.841,28.289-18.766c16.521-13.239,33.017-26.475,49.538-39.714c4.802-3.841,9.964-8.059,11.682-11.037     c1.741-3.029-0.626-3.793-3.161-4.24c-0.148-0.026-0.296-0.051-0.444-0.075c-5.496-0.911-10.985-1.812-16.49-2.716     c-0.618-0.266-1.382-0.44-2.174-0.58c-0.175-0.031-0.351-0.06-0.527-0.088c-0.566-0.1-2.412-0.417-5.342-0.925     c-1.502-0.492-3.166-1.09-5.118-1.434c-1.335-0.235-2.804-0.352-4.448-0.237c-50.649-8.856-211.812-37.198-218.079-38.228     c-0.044-0.007-0.088-0.015-0.132-0.022c-1.077-0.19-2.205-0.581-3.434-0.989C392.777,862.774,391.402,862.336,389.844,862.061"></path>
			<path style="fill:#55d4ab;" d="M891.679,870.987c-4.25-0.749-8.693-1.221-12.28-0.57c-5.328,0.967-7.85,4.219-10.22,6.116     c-4.8,3.825-9.75,7.631-14.629,11.442c-2.871,2.25-5.846,4.756-4.532,7.027c1.457,2.482,7.452,3.789,13.202,4.803     c0.34,0.06,0.679,0.119,1.016,0.177c10.095,1.738,20.191,3.477,30.286,5.215c4.164,0.718,8.769,1.438,13.439,0.854     c6.512-0.808,10.194-3.706,12.974-6.255c5.308-4.876,10.615-9.751,15.914-14.62c1.548-1.417,3.123-2.988,2.08-4.346     c-1.063-1.408-4.558-2.136-7.881-2.722c-0.146-0.026-0.292-0.051-0.437-0.077c-9.38-1.621-18.744-3.238-28.115-4.866     c-0.082-0.014-0.165-0.028-0.249-0.043c-1.386-0.244-3.016-0.595-4.792-0.979C895.647,871.756,893.684,871.341,891.679,870.987"></path>
			<path style="fill:#55d4ab;" d="M403.712,732.885c-4.246-0.749-8.681-1.216-12.253-0.567c-5.312,0.97-7.834,4.222-10.204,6.119     c-4.809,3.831-9.766,7.628-14.629,11.442c-2.887,2.247-5.862,4.753-4.523,7.021c1.449,2.488,7.444,3.796,13.194,4.81     c0.34,0.06,0.679,0.119,1.015,0.177c10.095,1.738,20.175,3.474,30.27,5.213c4.164,0.718,8.768,1.438,13.455,0.857     c6.496-0.811,10.194-3.706,12.974-6.255c5.308-4.876,10.615-9.751,15.923-14.627c1.539-1.41,3.114-2.981,2.071-4.339     c-1.063-1.408-4.558-2.136-7.881-2.722c-0.146-0.026-0.292-0.051-0.437-0.077c-9.38-1.621-18.759-3.241-28.124-4.859     c-0.074-0.013-0.148-0.026-0.224-0.039c-1.389-0.245-3.006-0.601-4.785-0.978C407.727,733.665,405.741,733.243,403.712,732.885"></path>
			<path style="fill:#55d4ab;" d="M503.048,750.401c-4.241-0.748-8.669-1.214-12.241-0.565c-5.328,0.967-7.85,4.219-10.22,6.116     c-4.809,3.831-9.75,7.631-14.629,11.442c-2.871,2.25-5.846,4.756-4.523,7.021c1.449,2.488,7.444,3.796,13.194,4.81     c0.34,0.06,0.679,0.119,1.016,0.177c10.095,1.738,20.191,3.477,30.286,5.215c4.164,0.718,8.769,1.438,13.454,0.857     c6.496-0.811,10.178-3.709,12.958-6.258c5.308-4.876,10.615-9.751,15.923-14.627c1.539-1.41,3.114-2.981,2.087-4.336     c-1.078-1.41-4.56-2.137-7.895-2.725c-0.147-0.026-0.293-0.052-0.439-0.077c-9.364-1.618-18.744-3.238-28.124-4.859     c-0.074-0.013-0.149-0.026-0.224-0.039c-1.389-0.245-3.006-0.601-4.785-0.978C507.06,751.18,505.075,750.758,503.048,750.401"></path>
			<path style="fill:#55d4ab;" d="M602.393,767.918c-4.246-0.749-8.681-1.216-12.253-0.567c-5.312,0.97-7.834,4.222-10.22,6.116     c-4.793,3.834-9.75,7.631-14.613,11.444c-2.887,2.247-5.862,4.753-4.523,7.021c1.449,2.488,7.444,3.796,13.194,4.81     c0.34,0.06,0.679,0.119,1.016,0.177c10.095,1.738,20.175,3.474,30.27,5.213c4.164,0.718,8.768,1.438,13.455,0.857     c6.496-0.811,10.194-3.706,12.974-6.255c5.308-4.876,10.615-9.751,15.923-14.627c1.539-1.41,3.114-2.981,2.071-4.339     c-1.063-1.408-4.558-2.136-7.881-2.722c-0.146-0.026-0.292-0.051-0.438-0.077c-9.38-1.621-18.759-3.241-28.124-4.859     c-0.074-0.013-0.148-0.026-0.224-0.039c-1.389-0.245-3.005-0.601-4.785-0.978C606.407,768.698,604.421,768.276,602.393,767.918"></path>
			<path style="fill:#55d4ab;" d="M701.728,785.434c-4.241-0.748-8.669-1.214-12.241-0.565c-5.328,0.967-7.85,4.219-10.22,6.116     c-4.809,3.831-9.75,7.631-14.629,11.442c-2.871,2.25-5.846,4.756-4.523,7.021c1.449,2.488,7.444,3.796,13.194,4.81     c0.34,0.06,0.679,0.119,1.016,0.177c10.095,1.738,20.19,3.477,30.286,5.215c4.164,0.718,8.769,1.438,13.439,0.854     c6.512-0.808,10.194-3.706,12.973-6.255c5.308-4.876,10.615-9.751,15.923-14.627c1.539-1.41,3.114-2.981,2.071-4.339     c-1.063-1.408-4.544-2.134-7.879-2.722c-0.147-0.026-0.293-0.052-0.439-0.077c-9.38-1.621-18.744-3.238-28.124-4.859     c-0.074-0.013-0.149-0.026-0.224-0.039c-1.389-0.245-3.006-0.601-4.785-0.978C705.74,786.213,703.755,785.791,701.728,785.434"></path>
			<path style="fill:#55d4ab;" d="M801.072,802.951c-4.246-0.749-8.681-1.216-12.253-0.567c-5.312,0.97-7.834,4.222-10.22,6.116     c-4.793,3.834-9.75,7.631-14.613,11.444c-2.887,2.247-5.862,4.753-4.523,7.021c1.434,2.486,7.442,3.796,13.194,4.81     c0.34,0.06,0.679,0.119,1.016,0.177c10.095,1.738,20.175,3.474,30.27,5.213c4.164,0.718,8.768,1.438,13.455,0.857     c6.496-0.811,10.194-3.706,12.973-6.255c5.308-4.876,10.615-9.751,15.923-14.627c1.539-1.41,3.114-2.981,2.071-4.339     c-1.063-1.408-4.558-2.136-7.881-2.722c-0.146-0.026-0.292-0.051-0.437-0.077c-9.38-1.621-18.76-3.241-28.124-4.859     c-0.074-0.013-0.149-0.026-0.224-0.039c-1.389-0.245-3.005-0.601-4.785-0.978C805.087,803.73,803.102,803.308,801.072,802.951"></path>
			<path style="fill:#55d4ab;" d="M900.408,820.466c-4.241-0.748-8.669-1.214-12.241-0.565c-5.328,0.967-7.85,4.219-10.22,6.116     c-4.809,3.831-9.75,7.631-14.629,11.442c-2.871,2.25-5.862,4.753-4.523,7.021c1.449,2.488,7.444,3.796,13.194,4.81     c0.34,0.06,0.679,0.119,1.016,0.177c10.095,1.738,20.191,3.477,30.286,5.215c4.164,0.718,8.768,1.438,13.439,0.854     c6.512-0.808,10.194-3.706,12.974-6.255c5.308-4.876,10.615-9.751,15.923-14.627c1.539-1.41,3.114-2.981,2.071-4.339     c-1.063-1.408-4.558-2.136-7.881-2.722c-0.146-0.026-0.292-0.051-0.437-0.077c-9.38-1.621-18.744-3.238-28.123-4.859     c-0.074-0.013-0.149-0.026-0.224-0.039c-1.389-0.245-3.005-0.601-4.785-0.978C904.42,821.245,902.435,820.824,900.408,820.466"></path>
			<path style="fill:#55d4ab;" d="M999.753,837.983c-4.246-0.749-8.681-1.216-12.253-0.567c-5.312,0.97-7.834,4.222-10.22,6.116     c-4.793,3.834-9.75,7.631-14.629,11.442c-2.871,2.25-5.846,4.756-4.507,7.023c1.434,2.486,7.442,3.796,13.194,4.81     c0.34,0.06,0.679,0.119,1.016,0.177c10.08,1.736,20.175,3.474,30.27,5.213c4.164,0.718,8.768,1.438,13.455,0.857     c6.496-0.811,10.194-3.706,12.958-6.258c5.323-4.873,10.631-9.749,15.939-14.624c1.539-1.41,3.114-2.981,2.071-4.339     c-1.063-1.408-4.558-2.136-7.881-2.722c-0.146-0.026-0.292-0.051-0.437-0.077c-9.38-1.621-18.76-3.241-28.124-4.859     c-0.074-0.013-0.149-0.026-0.224-0.039c-1.389-0.245-3.006-0.601-4.785-0.978C1003.767,838.763,1001.781,838.341,999.753,837.983     "></path>
		</g>
	</g>
</g>

            </g>
        </g>
    </g>
    
    <!-- ITEM 2 -->
    <g>
        <defs>
            <clipPath id="clip-path-id-viewbox-item-2">
                <rect x="0.0" y="0.0" width="677.488" height="1019.039"/>
            </clipPath>
        </defs>
        <g transform="translate(1464.0 255.0) rotate(0.0 -404.5 608.0) scale(-1.194117091372836 1.1932811207421894)">
            <g clip-path="url(#clip-path-id-viewbox-item-2)" transform="translate(-0.0 -0.0)">
                
<g>
	<g>
		<path style="fill:#deab9e;" d="M445.715,620.712c-0.421-5.256-1.257-10.831-2.753-16.624c-1.529-5.8-3.735-11.818-6.773-17.664    c-3.043-5.832-6.883-11.456-11.264-16.35c-4.368-4.91-9.175-9.189-14.026-12.714c-4.861-3.547-9.769-6.434-14.558-8.845    c-1.211-0.626-2.386-1.168-3.575-1.724l-0.892-0.414l-0.223-0.103l-0.112-0.051l-0.208-0.087l-0.908-0.368    c-1.192-0.47-2.488-0.973-3.625-1.342c-1.139-0.372-2.288-0.724-3.441-1.054c-1.064-0.281-2.134-0.545-3.208-0.794    c-1.099-0.26-2.016-0.416-3.039-0.61l-1.495-0.263l-1.392-0.2c-3.791-0.542-7.083-0.733-10.207-0.813l-2.3-0.031l-2.18,0.029    c-1.486,0.017-2.799,0.097-4.196,0.161c-5.395,0.32-10.193,0.901-14.746,1.614c-4.541,0.711-8.8,1.559-12.912,2.465    c-8.22,1.786-15.841,3.899-23.267,6.067c-7.414,2.189-14.567,4.515-21.614,6.893c-7.038,2.397-13.946,4.846-20.787,7.344    c-6.847,2.475-13.603,5.024-20.299,7.618c-13.425,5.048-26.685,10.423-39.691,15.258l52.202,97.508    c10.94-8.006,21.725-15.298,32.615-22.383c5.461-3.473,10.923-6.869,16.377-10.164c5.464-3.263,10.931-6.427,16.383-9.379    c5.441-2.973,10.875-5.774,16.198-8.316c5.31-2.561,10.564-4.822,15.423-6.721c2.428-0.932,4.76-1.745,6.869-2.423    c2.098-0.67,4.008-1.224,5.375-1.565c0,0,3.825-0.344,4.1-0.252c0.259,0.097,0.578,0.43,0.96,1.146    c0.362,0.743,0.76,1.872,1.083,3.367c0.31,1.508,0.515,3.376,0.621,5.481c0.227,4.224-0.09,9.378-0.752,14.898    c-0.072,0.589-0.13,1.077-0.18,1.505c0.088-1.613-0.09-2.643-1.578,3.327c-3.278,12.708-6.893,25.829-10.798,39.099l69.389,19.214    c3.339-12.92,7.287-25.901,11.13-39.417c1.945-6.754,3.926-13.639,5.762-20.782c1.819-7.151,2.292-7.306,2.738-16.672    C446.151,630.894,446.128,625.96,445.715,620.712z"></path>
		<path style="fill:#e3ce63;" d="M53.404,643.862c3,30-5.556,72.801,71.034,99.538c64.216,22.417,170.69-77.271,170.69-77.271    s13-80-48-105c-48,19-161.491,57.063-161.491,57.063L53.404,643.862z"></path>
	</g>
	<path style="fill:#e3ce63;" d="M602.532,494.74c19.393-3.748,38.066-11.187,54.724-21.801c4.389-2.796,8.727-5.896,11.741-10.138   c3.014-4.242,4.53-9.853,2.789-14.757c-2.934-8.263-13.074-11.032-21.773-12.128c-17.838-2.247-36.643-2.337-52.971,5.189   c-13.099,6.038-27.924,20.612-28.088,36.163C568.773,494.336,589.817,497.197,602.532,494.74z"></path>
	<path style="fill:#deab9e;" d="M577.442,419.975c17.922-8.099,44.552-9.989,64-7.064c25.791,3.879,20.679,13.81,25.395,18.328   c3.491,3.344,10.843,5.917,10.646,13.75c-0.136,5.41-2.936,8.247-7.721,10.774c-10.635,5.617-20.816,1.501-32.128,3.79   c-10.05,2.033-19.554,6.186-28.594,10.931c-12.885,6.764-25.14,14.816-38.621,20.294c-7.713,3.134-16.022,5.423-24.3,4.533   c-8.278-0.89-16.523-5.466-20.017-13.022c-6.029-13.037,7.309-25.074,14.814-34.221   C550.75,436.085,563.309,426.362,577.442,419.975z"></path>
	<path style="fill:#deab9e;" d="M549.862,421.804c11.184-8.145,26.229-10.719,39.485-6.756c4.862,1.454,10.213,4.866,10.015,9.938   c-0.155,3.986-3.833,6.983-7.595,8.309c-3.762,1.326-7.856,1.552-11.564,3.022c-5.235,2.076-9.218,6.434-12.521,10.996   c-3.303,4.561-6.152,9.498-10.09,13.524c-3.938,4.026-9.289,7.131-14.908,6.764C517.39,465.951,540.359,428.725,549.862,421.804z"></path>
	<g>
		<path style="fill:#f7eede;" d="M263.884,1000.542c-36.332,22.609-99.283,24.795-140.603,4.885    c-41.323-19.912-45.37-54.381-9.038-76.99c36.329-22.607,99.28-24.793,140.604-4.881    C296.166,943.466,300.213,977.935,263.884,1000.542"></path>
	</g>
	<g>
		<path style="fill:#7b5b92;" d="M293.899,930.154c-50.906,31.678-139.11,34.741-197.006,6.844    c-57.9-27.899-63.57-76.196-12.664-107.874c50.902-31.676,139.106-34.739,197.006-6.839    C339.131,850.182,344.801,898.478,293.899,930.154"></path>
	</g>
	<g>
		<path style="fill:#f7eede;" d="M331.051,848.451c-68.947,42.904-188.409,47.053-266.821,9.27    c-78.419-37.787-86.098-103.199-17.151-146.103c68.941-42.901,188.403-47.05,266.822-9.263    C392.313,740.138,399.992,805.551,331.051,848.451"></path>
	</g>
	<path style="fill:#7b5b92;" d="M189.103,1006.412c-20.959,0-41.084-4.136-56.67-11.646c-16.203-7.809-25.83-18.482-26.412-29.285   c-0.52-9.643,6.194-19.309,18.904-27.218c16.027-9.974,39.389-15.694,64.094-15.694c20.961,0,41.088,4.136,56.674,11.646   c16.202,7.808,25.828,18.481,26.41,29.284c0.52,9.643-6.193,19.309-18.902,27.217   C237.171,1000.691,213.809,1006.412,189.103,1006.412z M189.019,930.569c-23.253,0-45.073,5.28-59.867,14.487   c-9.974,6.205-15.493,13.493-15.143,19.995c0.414,7.687,8.6,16.101,21.896,22.508c14.524,6.998,33.417,10.853,53.197,10.853   c23.252,0,45.074-5.28,59.871-14.488c9.973-6.205,15.491-13.493,15.141-19.994c-0.414-7.687-8.599-16.1-21.895-22.507   C227.696,934.423,208.802,930.569,189.019,930.569z"></path>
	<g>
		<path style="fill:#deab9e;" d="M212.005,333.226c22.064-17.651,63.67-46.649,58.627-95.82    c-5.043-49.171-31.243-44.74-31.243-94.55s67.806-88.264,122.65-88.264s89.516,48.54,89.516,133.643s-4.525,92.941-8.127,99.18    c-3.602,6.239-46.717,23.116-75.715,16.813c-28.722,15.237-39.715,24.585-47.91,54.844    C292.696,348.985,212.005,333.226,212.005,333.226z"></path>
		<path style="fill:#8f766e;" d="M412.637,24.545c4.876,15.676,4.876,38.715,4.876,38.715s-5.921-45.679-47.367-63.03    c-2.468-1.033-4.856,1.609-3.592,3.968c6.557,12.24,11.244,25.966,11.244,25.966S322.998,6.678,282.642,3.924    c-2.278-0.155-3.785,2.325-2.633,4.297c7.856,13.448,24.033,33.764,24.033,33.764S245.553,6.891,173.781,29.75    c-2.226,0.709-2.672,3.677-0.759,5.017c21.318,14.92,61.52,47.405,61.52,47.405s-28.679-15.41-52.233-19.755    c-1.811-0.334-3.448,1.145-3.326,2.982c2.154,32.531,5.606,60.748,36.175,99.985c31.677,40.66,42.538,41.614,43.963,61.94    c1.425,20.326-9.922,27.418-5.667,41.602c4.255,14.184,39.242,17.966,65.246,12.765c20.803-4.161,35.822-14.13,40.89-31.967    c1.982-6.976,1.986-14.367,0.412-21.447l-7.103-31.947c-1.44-6.479,2.419-13.142,8.875-14.679    c7.506-1.787,13.3,2.969,14.985,10.547l5.243,22.524c0.983,4.423,5.162,7.393,9.659,6.842c5.874-0.72,15.123-4.461,16.998-6.576    c2.786-3.143-20.43-51.023-9.097-69.462c11.333-18.439,33.298,0.261,47.137-7.907c12.832-7.573,1.166-91.853-29.618-116.146    C414.917,19.767,411.819,21.914,412.637,24.545z"></path>
		<path style="fill:#deab9e;" d="M271.685,49.032c-0.354,0.686-5.232-1.27-13.165-3.965c-0.992-0.333-2.032-0.681-3.115-1.045    c-1.082-0.364-2.229-0.679-3.401-1.047c-2.336-0.761-4.879-1.413-7.533-2.156c-5.342-1.371-11.255-2.688-17.528-3.72    c-6.28-0.986-12.308-1.588-17.811-1.961c-2.753-0.126-5.373-0.303-7.829-0.313c-1.228-0.018-2.417-0.078-3.558-0.072    c-1.142,0.006-2.239,0.011-3.286,0.016c-8.378,0.073-13.623,0.402-13.744-0.36c-0.11-0.64,4.98-2.256,13.52-3.276    c1.069-0.112,2.188-0.23,3.355-0.352c1.168-0.112,2.387-0.152,3.65-0.227c2.526-0.177,5.228-0.158,8.075-0.159    c5.689,0.119,11.948,0.596,18.446,1.617c6.491,1.067,12.584,2.574,18.024,4.245c2.704,0.893,5.276,1.722,7.619,2.682    c1.175,0.467,2.32,0.887,3.395,1.36c1.069,0.482,2.096,0.944,3.075,1.386C267.664,45.329,271.99,48.458,271.685,49.032z"></path>
		<path style="fill:#deab9e;" d="M214.472,102.352c-0.371,0.574-3.157-0.4-7.153-2.886c-2-1.235-4.267-2.884-6.66-4.874    c-2.373-2.01-4.86-4.373-7.267-7.043c-2.392-2.683-4.47-5.413-6.21-7.99c-1.718-2.595-3.11-5.027-4.12-7.151    c-2.037-4.243-2.702-7.118-2.09-7.425c1.344-0.66,7.1,9.005,16.258,19.126C206.294,94.315,215.274,101.087,214.472,102.352z"></path>
		<path style="fill:#deab9e;" d="M325.529,40.446c-0.662,0.372-2.738-2.225-6.19-6.135c-0.868-0.975-1.805-2.046-2.874-3.137    c-1.02-1.133-2.204-2.253-3.406-3.465c-2.475-2.357-5.28-4.842-8.39-7.249c-3.133-2.378-6.261-4.441-9.181-6.218    c-1.482-0.846-2.872-1.698-4.231-2.389c-1.332-0.749-2.609-1.375-3.777-1.96c-4.672-2.318-7.72-3.648-7.532-4.383    c0.155-0.642,3.588-0.557,8.865,0.992c1.315,0.393,2.749,0.856,4.241,1.475c1.52,0.561,3.073,1.316,4.717,2.102    c3.241,1.655,6.679,3.744,10.032,6.291c3.331,2.576,6.241,5.354,8.682,8.053c1.186,1.383,2.319,2.687,3.256,4.009    c0.985,1.28,1.805,2.544,2.526,3.712C325.135,36.837,326.109,40.129,325.529,40.446z"></path>
		<path style="fill:#deab9e;" d="M331.731,228.951c0.651-0.144,1.959,2.45,2.79,7.01c0.202,1.138,0.391,2.394,0.478,3.751    c0.143,1.358,0.144,2.812,0.153,4.348c-0.066,3.065-0.407,6.44-1.152,9.91c-0.775,3.463-1.877,6.672-3.099,9.483    c-0.65,1.391-1.26,2.712-1.957,3.885c-0.647,1.197-1.344,2.258-2.003,3.208c-2.661,3.794-4.934,5.604-5.466,5.201    c-0.605-0.448,0.581-2.977,2.28-6.969c0.421-1.002,0.892-2.086,1.331-3.277c0.489-1.167,0.909-2.454,1.395-3.783    c0.894-2.691,1.771-5.67,2.484-8.851c0.682-3.188,1.131-6.261,1.445-9.079c0.115-1.411,0.271-2.755,0.315-4.02    c0.099-1.266,0.125-2.447,0.161-3.533C331.013,231.898,330.994,229.105,331.731,228.951z"></path>
		<path style="fill:#deab9e;" d="M292.536,242.932c0.678-0.106,1.68,1.829,2.319,5.199c0.326,1.681,0.516,3.714,0.535,5.98    c-0.006,2.263-0.199,4.758-0.657,7.336c-0.477,2.575-1.173,4.978-1.963,7.099c-0.814,2.115-1.706,3.952-2.602,5.411    c-1.783,2.93-3.401,4.389-3.999,4.052c-1.281-0.751,1.848-8.07,3.494-17.482C291.43,251.136,291.074,243.185,292.536,242.932z"></path>
		<path style="fill:#deab9e;" d="M272.332,205.198c0.619-0.212,2.625,3.397,4.419,9.783c0.21,0.801,0.43,1.641,0.659,2.516    c0.219,0.878,0.378,1.805,0.572,2.76c0.413,1.909,0.664,3.978,0.945,6.157c0.452,4.366,0.626,9.212,0.321,14.28    c-0.347,5.065-1.141,9.849-2.15,14.121c-0.558,2.125-1.073,4.145-1.727,5.985c-0.316,0.923-0.591,1.822-0.922,2.664    c-0.339,0.838-0.665,1.643-0.976,2.411c-2.598,6.104-5.051,9.425-5.637,9.136c-0.692-0.33,0.562-4.157,2.188-10.311    c0.2-0.769,0.41-1.575,0.628-2.415c0.219-0.838,0.388-1.727,0.603-2.633c0.452-1.808,0.788-3.771,1.197-5.819    c0.709-4.12,1.322-8.666,1.653-13.469c0.288-4.806,0.264-9.394,0.088-13.57c-0.143-2.083-0.224-4.074-0.441-5.925    c-0.097-0.926-0.151-1.829-0.26-2.688c-0.109-0.861-0.213-1.687-0.313-2.476C272.356,209.392,271.603,205.436,272.332,205.198z"></path>
		
			<ellipse transform="matrix(0.9939 -0.1103 0.1103 0.9939 -23.4657 33.7284)" style="fill:#deab9e;" cx="293.11" cy="228.951" rx="2.576" ry="6.422"></ellipse>
		<path style="fill:#deab9e;" d="M369.92,79.132c-0.483,0.616-3.995-1.659-9.977-4.398c-5.945-2.764-14.497-5.888-24.348-7.037    c-0.811-0.088-1.613-0.174-2.406-0.26c-0.133-0.014-0.373-0.039-0.342-0.049c-0.033-0.014-0.085-0.032-0.167-0.05    c-0.069-0.016-0.241-0.052-0.226-0.034c-0.042,0.016-0.034,0.075,0.048,0.212l0.075,0.118l0.049,0.07l0.011,0.017    c0,0-0.026-0.015,0.031,0.035l0.231,0.207c0.619,0.544,1.196,1.103,1.751,1.649c2.208,2.198,3.904,4.36,5.16,6.238    c2.498,3.783,3.273,6.362,2.82,6.623c-0.508,0.304-2.162-1.699-5.147-4.735c-1.5-1.51-3.345-3.274-5.58-5.073    c-0.562-0.446-1.138-0.906-1.749-1.352l-0.651-0.495c-0.312-0.219-0.625-0.44-0.941-0.661c-0.656-0.445-1.236-0.904-1.993-1.367    c-0.769-0.467-1.546-0.939-2.332-1.416c-0.885-0.507-1.78-1.019-2.683-1.537c-1.843-1.047-3.723-2.116-5.637-3.204    c1.11-0.106,3.083-0.173,4.889-0.252c1.818-0.065,3.667-0.132,5.543-0.199c1.864-0.117,3.81,0.027,5.774,0.085l1.481,0.056    c0.399,0.023,0.594,0.055,0.902,0.083c0.563,0.059,1.13,0.118,1.7,0.178c10.645,1.24,19.697,5.207,25.494,8.961    C367.562,75.288,370.329,78.646,369.92,79.132z"></path>
		<path style="fill:#deab9e;" d="M407.562,70.832c-0.704,0.213-2.043-2.279-4.193-6.13c-1.08-1.925-2.385-4.184-3.934-6.613    c-0.771-1.217-1.612-2.471-2.513-3.748c-0.226-0.319-0.453-0.64-0.683-0.965l-0.039-0.027c-0.024-0.019-0.012,0.006-0.016,0.001    c0.005,0.006-0.061-0.266-0.2-0.043c-0.159,1.353-0.311,2.64-0.452,3.844c-0.166,1.319-0.34,2.547-0.52,3.666    c-0.717,4.479-1.515,7.229-2.226,7.189c-0.71-0.04-1.198-2.862-1.412-7.392c-0.053-1.133-0.09-2.372-0.109-3.702    c-0.005-0.664-0.009-1.352-0.014-2.06c0.001-0.354,0.002-0.713,0.003-1.076l0.004-0.549c0.009-0.307,0.018-0.617,0.027-0.928    c0.103-2.848,0.18-6.128,0.464-8.976c0.062-0.744,0.125-1.495,0.188-2.252l0.049-0.569l0.025-0.285l0.012-0.143l0.094,0.107    l0.764,0.892c1.011,1.189,2.036,2.395,3.074,3.616c0.513,0.601,1.029,1.256,1.537,1.877c0.511,0.624,1.017,1.246,1.493,1.925    c0.48,0.661,0.957,1.316,1.43,1.967c0.234,0.358,0.467,0.714,0.698,1.066c0.911,1.416,1.726,2.821,2.437,4.193    c1.428,2.741,2.469,5.325,3.168,7.545C408.107,67.717,408.219,70.639,407.562,70.832z"></path>
		<path style="fill:#deab9e;" d="M357.41,139.612c-0.155,0.617-3.352,0.239-8.604,0.017c-2.626-0.101-5.771-0.157-9.292,0.052    c-1.76,0.094-3.614,0.254-5.538,0.5l-0.726,0.089c-0.425,0.062-0.852,0.125-1.282,0.188c-0.958,0.153-1.837,0.25-2.904,0.454    c-2.121,0.397-4.282,0.801-6.479,1.212c0.676-1.279,1.361-2.573,2.053-3.882c0.359-0.653,0.667-1.295,1.076-1.971    c0.402-0.675,0.807-1.354,1.214-2.036c0.217-0.343,0.446-0.687,0.683-1.033l0.704-0.968c0.261-0.375,0.561-0.723,0.844-1.086    c0.567-0.726,1.192-1.415,1.828-2.099c4.083-4.343,9.037-7.412,13.894-9.118c4.868-1.721,9.537-2.128,13.35-1.886    c3.83,0.232,6.822,1.1,8.773,1.897c1.953,0.828,2.893,1.568,2.779,1.885c-0.249,0.763-4.623-0.562-11.555-0.139    c-3.444,0.225-7.513,0.956-11.648,2.676c-4.123,1.706-8.313,4.466-11.843,8.219c-0.549,0.592-1.093,1.184-1.587,1.807    c-0.246,0.312-0.511,0.608-0.738,0.93c-0.086,0.116-0.046,0.06-0.053,0.069l0.005-0.01l-0.006,0    c-0.016,0.003-0.082,0.049-0.131,0.11c0,0.017,0.017,0.034,0.06,0.051c0.016,0.009,0.143,0.007,0.218,0.01l0.068,0.002    c0.034,0-0.001,0.005,0.178-0.008l0.781-0.053c2.07-0.145,4.055-0.176,5.929-0.117c3.748,0.096,7.044,0.547,9.737,1.098    C354.59,137.6,357.555,139.071,357.41,139.612z"></path>
		<path style="fill:#deab9e;" d="M279.959,108.035c0.065,0.671-4.53,1.856-12.152,2.321c-3.805,0.223-8.361,0.26-13.402-0.108    c-2.521-0.169-5.162-0.453-7.887-0.833c-1.364-0.186-2.746-0.414-4.147-0.656c-0.508-0.087-0.282-0.046-0.344-0.055l-0.017,0.001    c-0.015-0.001-0.012,0.001-0.012,0.001l-0.002-0.002c-0.005-0.004-0.016-0.009-0.023,0.002l-0.005,0.011    c-0.004-0.003,0.003,0.012,0.014,0.033l0.234,0.407c0.326,0.549,0.615,1.115,0.962,1.64c1.292,2.158,2.718,4.127,4.12,5.967    c2.843,3.656,5.772,6.662,8.396,9.017c5.247,4.725,9.08,7.061,8.725,7.749c-0.255,0.559-4.767-0.664-10.956-4.937    c-3.082-2.126-6.506-5.065-9.795-8.84c-1.625-1.899-3.261-3.972-4.735-6.278c-0.392-0.561-0.725-1.167-1.093-1.758l-0.276-0.457    c-0.162-0.266-0.323-0.541-0.48-0.841c-0.296-0.58-0.592-1.162-0.89-1.747c-1.207-2.325-2.37-4.771-3.542-7.206    c0.868,0.187,1.745,0.377,2.626,0.567c1.413,0.301,2.817,0.6,4.212,0.897c1.278,0.264,2.548,0.527,3.809,0.787    c1.347,0.25,2.675,0.496,3.985,0.708c2.619,0.433,5.154,0.807,7.579,1.097c4.848,0.611,9.246,0.947,12.953,1.19    C275.228,107.182,279.893,107.291,279.959,108.035z"></path>
		<path style="fill:#deab9e;" d="M436.354,103.458c-0.696,0.097-1.528-2.877-3.476-7.355c-0.971-2.239-2.263-4.841-3.973-7.57    c-0.43-0.68-0.88-1.373-1.364-2.062c-0.244-0.344-0.49-0.691-0.739-1.043l-0.393-0.517l-0.197-0.261l-0.049-0.065l-0.009-0.009    l-0.015-0.013c-0.093-0.043-0.115-0.011-0.11,0.033c0.007,0.044,0.014,0.048,0.014,0.048s-0.001,0.003,0.001-0.008l-0.159,0.707    c-0.119,0.561-0.26,1.112-0.409,1.658c-0.276,1.096-0.599,2.162-0.93,3.204c-0.675,2.08-1.419,4.055-2.241,5.885    c-1.623,3.67-3.449,6.794-5.185,9.263c-3.498,4.941-6.44,7.303-6.952,6.875c-0.585-0.471,1.294-3.595,3.816-8.73    c1.255-2.572,2.638-5.668,3.918-9.186c0.651-1.755,1.249-3.624,1.813-5.575c0.275-0.978,0.551-1.973,0.79-2.993    c0.13-0.508,0.255-1.02,0.36-1.541l0.2-0.915c0.128-0.552,0.226-1.099,0.322-1.669c0.46-2.924,0.914-5.804,1.357-8.622    c2.527,2.835,4.937,5.408,7.098,8.319c0.315,0.464,0.627,0.924,0.936,1.379c0.251,0.407,0.5,0.81,0.746,1.209    c0.484,0.8,0.923,1.603,1.33,2.392c1.623,3.165,2.662,6.172,3.261,8.733C437.318,100.172,436.951,103.392,436.354,103.458z"></path>
		<path style="fill:#e3ce63;" d="M445.516,253.703c0.258,1.172-1.112,2.544-3.317,4.028c-2.217,1.484-5.261,3.134-8.641,4.878    c-3.375,1.754-6.478,3.288-8.97,4.243c-2.485,0.945-4.395,1.273-5.204,0.385c-0.789-0.863-0.278-2.831,1.489-5.19    c1.753-2.352,4.813-5.03,8.734-7.065c3.924-2.029,7.877-2.983,10.81-3.058C443.364,251.843,445.266,252.561,445.516,253.703z"></path>
		<ellipse style="fill:#e3ce63;" cx="442.493" cy="188.623" rx="26.24" ry="40.66"></ellipse>
		<ellipse style="fill:#7b5b92;" cx="446.897" cy="188.623" rx="15.476" ry="33.007"></ellipse>
		<path style="fill:#e3ce63;" d="M363.144,204.64c-2.282-3.301-3.606-10.338,1.416-11.228c1.336-0.237,2.728,0.331,3.714,1.263    c0.986,0.931,1.61,2.187,2.036,3.475c0.707,2.139,0.852,4.616-0.343,6.623c-0.712,1.196-2.015,2.108-3.406,2.058    c-1.05-0.038-2.025-0.609-2.753-1.367C363.581,205.227,363.358,204.95,363.144,204.64z"></path>
	</g>
	<path style="fill:#f7eede;" d="M189.121,937.569c-29.604,0-58.007-5.997-79.979-16.886c-22.472-11.136-35.813-26.186-36.604-41.291   c-0.702-13.387,8.558-26.933,26.072-38.142c22.564-14.441,55.511-22.725,90.39-22.725c29.604,0,58.011,5.997,79.985,16.888   c22.469,11.134,35.81,26.183,36.601,41.288c0.701,13.388-8.558,26.933-26.069,38.14   C256.949,929.285,224.001,937.569,189.121,937.569z M189.001,826.526c-33.392,0-64.766,7.823-86.077,21.463   c-14.987,9.592-22.94,20.596-22.396,30.985c0.636,12.136,12.36,24.726,32.168,34.541c20.889,10.353,48.03,16.054,76.426,16.054   c33.392,0,64.769-7.824,86.084-21.466c14.984-9.59,22.937-20.593,22.394-30.983c-0.637-12.135-12.36-24.724-32.165-34.538   C244.542,832.228,217.397,826.526,189.001,826.526z"></path>
	<path style="fill:#e3ce63;" d="M277.984,327.738c-45.765-11.026-190.498-12.156-219,128   c-21.036,103.444-22.766,195.73,1.165,216.714c29.117,25.531,197.837,61.369,206.594-2.104   c6.299-45.658-3.795-73.714,36.139-140.11C331.451,482.739,443.265,367.561,277.984,327.738z"></path>
	<path style="fill:#deab9e;" d="M299.549,667.961c13.712-5.097,27.69-10.763,41.843-16.085c7.06-2.734,14.182-5.421,21.399-8.031   c7.211-2.634,14.494-5.215,21.913-7.742c7.429-2.506,14.97-4.958,22.785-7.266c7.829-2.286,15.863-4.513,24.528-6.396   c4.334-0.956,8.825-1.849,13.612-2.599c4.799-0.751,9.857-1.364,15.545-1.701c1.473-0.068,2.857-0.152,4.423-0.17l2.299-0.03   l2.425,0.032c3.293,0.084,6.764,0.285,10.76,0.857l1.467,0.211l1.576,0.277c1.078,0.205,2.045,0.369,3.203,0.643   c1.132,0.262,2.26,0.541,3.382,0.837c1.216,0.348,2.427,0.719,3.628,1.111c1.199,0.389,2.565,0.919,3.821,1.415l0.957,0.388   l0.219,0.091l0.118,0.054l0.235,0.109l0.94,0.436c1.254,0.585,2.492,1.157,3.769,1.817c5.049,2.542,10.223,5.585,15.347,9.324   c5.115,3.715,10.182,8.227,14.787,13.403c4.618,5.159,8.666,11.088,11.875,17.236c3.203,6.162,5.528,12.507,7.14,18.621   c1.577,6.107,2.459,11.984,2.903,17.525c0.435,5.532,0.46,10.734,0.24,15.674c-0.471,9.874-1.772,18.71-3.365,27.024   c-1.572,8.31-3.495,16.097-5.413,23.635c-1.936,7.531-4.023,14.789-6.074,21.909c-4.051,14.249-8.213,27.933-11.733,41.554   l-73.15-20.255c4.116-13.99,7.927-27.821,11.383-41.218c3.337-13.384,6.318-26.474,7.746-38.177   c0.698-5.818,1.032-11.253,0.793-15.705c-0.111-2.219-0.328-4.188-0.655-5.778c-0.34-1.576-0.76-2.766-1.141-3.549   c-0.403-0.754-0.739-1.106-1.013-1.208c-0.29-0.097-0.429-0.045-0.74-0.085c-0.294-0.046-0.711-0.208-1.53-0.504   c-0.795-0.295-1.916-0.717-3.373-1.164c-0.336-0.118-0.756-0.223-1.15-0.339l-0.296-0.088l-0.074-0.023l-0.037-0.011   c-0.011-0.003,0.043,0.023,0.062,0.033l0.326,0.159c0.41,0.205,0.949,0.386,1.286,0.531l2.743,0.965   c0.44,0.144,0.323,0.246,0.037,0.36c-0.087,0.033-0.174,0.061-0.26,0.084l-0.383,0.109l-0.932,0.237   c-1.442,0.36-3.455,0.944-5.666,1.65c-2.223,0.715-4.681,1.573-7.241,2.555c-5.123,2.002-10.662,4.386-16.259,7.086   c-5.612,2.68-11.34,5.633-17.077,8.766c-5.747,3.112-11.511,6.448-17.271,9.888c-5.75,3.474-11.508,7.054-17.265,10.715   c-11.48,7.469-22.849,15.157-34.383,23.597L299.549,667.961z"></path>
	<path style="fill:#7b5b92;" d="M189.147,862.874c-42.939,0-84.115-8.446-115.941-23.782   c-32.226-15.529-51.352-36.387-52.474-57.227c-0.992-18.402,12.244-37.115,37.271-52.69   c32.656-20.321,80.393-31.976,130.969-31.976c42.94,0,84.119,8.447,115.951,23.785c32.223,15.526,51.347,36.383,52.47,57.224   c0.991,18.404-12.244,37.115-37.269,52.687C287.467,851.217,239.727,862.874,189.147,862.874z M188.973,705.199   c-49.123,0-95.319,11.215-126.742,30.769c-22.438,13.963-34.338,30.11-33.51,45.467c0.96,17.838,18.44,36.227,47.958,50.45   c30.766,14.825,70.707,22.989,112.469,22.989c49.127,0,95.325-11.216,126.751-30.772c22.435-13.959,34.334-30.105,33.507-45.464   c-0.961-17.838-18.439-36.226-47.954-50.446C270.681,713.364,230.734,705.199,188.973,705.199z"></path>
	<path style="fill:#e3ce63;" d="M387.055,436.479c-3.833,5.994-7.651,12.708-11.174,19.466c-3.529,6.787-6.812,13.722-9.753,20.665   c-2.941,6.942-5.546,13.902-7.689,20.723c-2.142,6.813-3.82,13.505-4.866,19.723c-1.056,6.205-1.434,11.945-1.188,16.455   c0.118,2.252,0.371,4.195,0.692,5.737c0.333,1.533,0.703,2.672,1.047,3.562c0.341,0.906,0.692,1.537,1.194,2.234   c0.504,0.686,1.205,1.434,2.343,2.254c0.263,0.215,0.631,0.392,0.93,0.618c0.323,0.215,0.738,0.399,1.093,0.625   c0.376,0.217,0.845,0.397,1.258,0.621c0.175,0.106,0.505,0.226,0.805,0.346l0.903,0.365c2.39,0.943,4.633,1.656,6.705,2.143   c4.176,0.96,7.532,1.126,11.307,0.541c3.751-0.594,8.15-2.153,13.219-5.029c5.05-2.849,10.609-6.933,16.351-11.776   c5.754-4.845,11.709-10.422,17.875-16.345c12.362-11.862,25.542-25.145,41.039-37.698c7.739-6.274,16.129-12.344,25.222-17.831   c9.097-5.482,18.99-10.306,29.435-14.051c16.118-5.779,33.87,2.602,39.649,18.72c5.499,15.335-1.821,32.149-16.427,38.724   l-0.859,0.383c-5.924,2.648-11.702,5.95-17.389,9.958c-5.686,4.019-11.287,8.646-16.851,13.846   c-11.166,10.375-22.047,22.793-34.131,36.151c-6.072,6.682-12.469,13.612-19.689,20.619c-7.232,6.987-15.294,14.113-25.067,20.718   c-4.885,3.291-10.209,6.433-16.022,9.21c-5.805,2.776-12.11,5.177-18.757,6.943c-6.641,1.772-13.611,2.892-20.559,3.272   c-6.95,0.389-13.854,0.046-20.448-0.866c-6.602-0.91-12.896-2.373-18.848-4.174l-2.217-0.693c-0.74-0.234-1.455-0.45-2.296-0.763   c-1.625-0.595-3.23-1.147-4.861-1.82c-1.637-0.695-3.257-1.348-4.893-2.125c-1.64-0.804-3.265-1.556-4.896-2.454   c-6.512-3.492-12.959-7.968-18.789-13.368c-5.834-5.383-11.024-11.676-15.129-18.349c-4.136-6.667-7.275-13.644-9.569-20.492   c-2.282-6.852-3.731-13.563-4.66-20.03c-1.825-12.95-1.625-24.898-0.605-36.125c1.05-11.229,2.982-21.78,5.388-31.932   c2.416-10.148,5.325-19.892,8.584-29.388c3.264-9.495,6.878-18.734,10.834-27.842c3.983-9.126,8.229-18.04,13.222-27.239   l0.235-0.434c11.983-22.08,39.597-30.266,61.677-18.282s30.266,39.597,18.282,61.677   C388.209,434.598,387.614,435.599,387.055,436.479z"></path>
	<path style="fill:#e3ce63;" d="M143.605,343.055c-38.622,16.683-113.622,57.683-128.622,96.683s37.141,80.952,58.571,81.476   S143.605,343.055,143.605,343.055z"></path>
	<path style="fill:#e3ce63;" d="M47.691,645.58c-4.87,36.877-25.671,108.061,53.121,146.624   c104.53,51.159,87.172-165.466,87.172-165.466L47.691,645.58z"></path>
	<path style="fill:#e3ce63;" d="M128.752,730.408c3,30-5.556,72.801,71.034,99.538c55.816,19.485,162.829-57.765,189.87-78.309   c4.233-3.216,6.848-8.102,7.191-13.407c1.298-20.05,0.101-70.261-40.918-92.712c-4.604-2.52-10.074-2.918-14.982-1.059   c-53.232,20.163-179.963,60.28-179.963,60.28L128.752,730.408z"></path>
	<path style="fill:#deab9e;" d="M456.952,811.868c-7.598,11.078-30.738,32.69,11.744,64.114   c37.61,27.821,28.884,21.171,40.785,27.563c22.938,12.32,33.088,13.286,42.618,14.573c19.503,2.635,27.773-13.293,12.794-34.25   c-10.57-14.788-22.247-30.021-34.79-51.746C517.559,810.398,456.952,811.868,456.952,811.868z"></path>
	<path style="fill:#e3ce63;" d="M284.753,329.456c25.9,8.457,61.791,22.789,85.677,42.535c23.886,19.746-27.447,71.08-27.447,71.08   l-106-24c0,0,3.333-58.364,6-62.848C245.65,351.738,284.753,329.456,284.753,329.456z"></path>
	<path style="fill:#8f766e;" d="M547.958,900.777c-1.549,1.26-18.866-18.755-44.129-38.933c-3.139-2.541-6.265-4.945-9.295-7.253   c-3.054-2.282-5.988-4.508-8.815-6.402c-5.627-3.832-11.082-6.381-15.903-7.233c-4.858-0.907-8.919-0.343-11.621,0.397   c-2.735,0.72-4.212,1.539-4.535,1.118c-0.267-0.31,0.68-1.915,3.474-3.573c2.744-1.661,7.435-3.169,13.265-2.766   c5.877,0.34,12.463,2.884,18.72,6.716c3.158,1.901,6.232,4.066,9.408,6.323c3.158,2.289,6.391,4.714,9.607,7.317   c12.933,10.345,23.346,21.213,30.219,29.562C545.239,894.412,548.665,900.208,547.958,900.777z"></path>
	<path style="fill:#e3ce63;" d="M128.752,730.408c0-2.17,0-69.67,0-69.67h102.732l12,51.714l-54.421,34.232L128.752,730.408z"></path>
	<path style="fill:#7b5b92;" d="M255.568,685.735c-0.911-0.002-1.824-5.9-1.9-15.493c-0.013-2.397,0.007-5.024,0.142-7.839   c0.086-2.82,0.317-5.823,0.564-8.985c0.565-6.316,1.448-13.243,2.754-20.45c1.332-7.202,2.955-13.994,4.663-20.102   c0.892-3.044,1.737-5.936,2.657-8.602c0.873-2.68,1.782-5.145,2.646-7.381c3.473-8.944,6.422-14.133,7.275-13.811   c1.876,0.717-5.414,22.942-10.482,51.132C258.655,662.363,257.578,685.731,255.568,685.735z"></path>
	<path style="fill:#7b5b92;" d="M292.479,666.722c0.525,1.87-7.669,5.725-17.375,10.784c-9.739,4.995-17.622,9.451-18.844,7.942   c-0.573-0.736,0.707-2.862,3.472-5.533c2.755-2.669,7.035-5.828,12.217-8.512c5.185-2.677,10.237-4.342,14.008-5.047   C289.735,665.645,292.21,665.828,292.479,666.722z"></path>
	<path style="fill:#7b5b92;" d="M248.624,686.907c0.118,0.205-0.422,0.767-1.569,1.654c-0.578,0.436-1.291,0.985-2.179,1.554   c-0.895,0.556-1.94,1.182-3.127,1.875c-4.752,2.734-11.995,6.185-21.43,9.011c-9.419,2.84-20.968,5.156-33.915,6.223   c-6.473,0.548-13.288,0.74-20.348,0.675c-7.06-0.084-14.359-0.56-21.8-1.356c-14.92-1.541-29.002-4.926-41.22-9.584   c-1.535-0.561-3.009-1.235-4.484-1.837c-0.734-0.309-1.464-0.616-2.189-0.921c-0.717-0.323-1.417-0.675-2.117-1.008   c-1.396-0.677-2.771-1.344-4.125-2.001c-1.318-0.729-2.616-1.447-3.891-2.153c-0.635-0.356-1.265-0.709-1.889-1.059   c-0.606-0.384-1.206-0.764-1.801-1.14c-1.186-0.755-2.35-1.497-3.492-2.223c-1.109-0.777-2.174-1.572-3.224-2.333   c-1.036-0.782-2.099-1.474-3.029-2.302c-3.857-3.12-7.108-6.22-9.764-9.113c-1.293-1.483-2.501-2.852-3.571-4.142   c-0.984-1.36-1.884-2.603-2.693-3.721c-0.396-0.563-0.775-1.088-1.11-1.597c-0.305-0.53-0.591-1.026-0.856-1.486   c-0.522-0.924-0.946-1.714-1.268-2.364c-0.644-1.3-0.882-2.037-0.683-2.166c0.199-0.129,0.825,0.355,1.824,1.382   c0.5,0.514,1.093,1.163,1.774,1.94c0.336,0.39,0.698,0.81,1.085,1.26c0.414,0.426,0.855,0.88,1.322,1.36   c0.917,0.966,1.936,2.04,3.051,3.215c1.179,1.105,2.459,2.306,3.835,3.597c2.798,2.519,6.119,5.222,9.972,7.951   c0.927,0.729,1.989,1.325,3.015,2.011c1.038,0.667,2.099,1.349,3.182,2.045c1.121,0.636,2.264,1.284,3.429,1.945   c0.581,0.331,1.167,0.666,1.759,1.003c0.61,0.306,1.225,0.615,1.845,0.927c1.24,0.621,2.502,1.253,3.783,1.896   c1.314,0.578,2.648,1.165,4.003,1.761c0.679,0.294,1.354,0.607,2.048,0.892c0.702,0.269,1.408,0.539,2.119,0.812   c1.428,0.531,2.847,1.134,4.33,1.63c11.809,4.132,25.317,7.2,39.775,8.693c7.237,0.774,14.333,1.285,21.194,1.457   c6.859,0.152,13.482,0.1,19.772-0.261c12.583-0.694,23.819-2.443,33.089-4.598c9.283-2.143,16.548-4.797,21.538-6.732   c2.515-0.968,4.468-1.719,5.793-2.229C247.735,686.862,248.505,686.702,248.624,686.907z"></path>
	<path style="fill:#7b5b92;" d="M125.935,712.452c0.449,0.153,0.556,1.376,0.38,3.403c-0.044,0.507-0.106,1.065-0.186,1.669   c-0.048,0.61-0.1,1.272-0.157,1.984c-0.11,1.418-0.355,2.996-0.401,4.77c-0.056,0.878-0.115,1.798-0.177,2.757   c-0.047,0.957-0.018,1.959-0.042,2.988c-0.097,2.056,0.084,4.255,0.145,6.555c0.344,4.6,1.023,9.616,2.252,14.781   c1.25,5.163,2.999,9.923,4.794,14.177c0.477,1.053,0.942,2.081,1.394,3.079c0.444,1.005,0.989,1.921,1.446,2.848   c0.897,1.867,1.91,3.505,2.782,5.048c0.829,1.575,1.777,2.866,2.489,4.103c0.375,0.603,0.689,1.199,1.024,1.71   c0.336,0.51,0.636,0.986,0.898,1.423c1.047,1.75,1.483,2.896,1.146,3.229c-0.338,0.333-1.424-0.183-3.131-1.438   c-0.427-0.314-0.892-0.674-1.394-1.078c-0.501-0.404-0.98-0.903-1.521-1.42c-1.042-1.065-2.321-2.225-3.471-3.716   c-1.195-1.459-2.521-3.062-3.714-4.942c-0.605-0.933-1.293-1.868-1.873-2.904c-0.578-1.039-1.173-2.109-1.783-3.206   c-2.284-4.467-4.391-9.628-5.761-15.288c-1.351-5.662-1.898-11.211-1.904-16.24c0.106-2.517,0.144-4.904,0.5-7.117   c0.153-1.106,0.264-2.176,0.458-3.192c0.224-1.01,0.439-1.979,0.644-2.905c0.372-1.852,0.973-3.468,1.457-4.883   c0.254-0.705,0.479-1.361,0.732-1.951c0.275-0.584,0.537-1.112,0.785-1.582C124.734,713.236,125.486,712.299,125.935,712.452z"></path>
	<path style="fill:#7b5b92;" d="M108.818,369.122c0.831,0.584-3.437,7.872-9.952,19.739c-0.811,1.485-1.661,3.04-2.546,4.661   c-0.886,1.619-1.744,3.339-2.676,5.093c-1.889,3.496-3.744,7.315-5.758,11.297c-3.907,8.027-8.013,16.933-11.964,26.438   c-3.903,9.525-7.273,18.735-10.165,27.18c-1.381,4.243-2.76,8.259-3.886,12.07c-0.577,1.901-1.182,3.725-1.695,5.498   c-0.516,1.773-1.01,3.475-1.483,5.1c-3.752,13.008-5.866,21.185-6.867,21.012c-0.868-0.143-0.444-8.655,2.145-22.152   c0.341-1.683,0.699-3.447,1.072-5.284c0.385-1.836,0.871-3.724,1.337-5.69c0.906-3.94,2.102-8.089,3.342-12.464   c2.61-8.708,5.868-18.175,9.85-27.891c4.03-9.696,8.398-18.705,12.689-26.719c2.206-3.976,4.284-7.761,6.422-11.193   c1.056-1.723,2.043-3.404,3.065-4.977c1.032-1.565,2.022-3.068,2.967-4.502C102.399,374.944,108.101,368.611,108.818,369.122z"></path>
	<path style="fill:#7b5b92;" d="M293.224,414.918c0.396,0.296-0.647,2.404-2.658,6.05c-2.018,3.642-4.901,8.903-8.051,15.564   c-1.585,3.326-3.166,7.035-4.771,11.043c-1.532,4.038-3.12,8.368-4.49,13.017c-2.807,9.273-5.01,19.722-6.133,30.82   c-1.05,11.105-0.914,21.784,0.043,31.425c0.443,4.827,1.161,9.382,1.882,13.64c0.797,4.243,1.63,8.189,2.54,11.758   c1.8,7.145,3.609,12.865,4.882,16.829c1.266,3.967,1.881,6.237,1.435,6.451c-0.408,0.197-1.842-1.687-3.894-5.401   c-2.058-3.709-4.619-9.308-7.083-16.507c-1.242-3.596-2.383-7.61-3.456-11.963c-0.996-4.368-1.956-9.072-2.594-14.081   c-1.35-10.005-1.694-21.188-0.592-32.821c1.174-11.626,3.679-22.53,6.942-32.084c1.598-4.791,3.451-9.22,5.274-13.312   c1.896-4.062,3.793-7.779,5.709-11.066c3.813-6.585,7.41-11.581,10.148-14.821C291.09,416.216,292.862,414.646,293.224,414.918z"></path>
	<path style="fill:#7b5b92;" d="M320.48,351.349c-0.465,0.908-6.568-1.442-16.444-4.763c-1.235-0.411-2.529-0.842-3.877-1.29   c-1.346-0.45-2.772-0.843-4.229-1.301c-2.904-0.945-6.063-1.767-9.36-2.702c-6.634-1.733-13.972-3.423-21.755-4.792   c-7.792-1.315-15.272-2.179-22.104-2.768c-3.419-0.223-6.671-0.506-9.724-0.588c-1.526-0.056-3.002-0.163-4.421-0.19   c-1.421-0.029-2.784-0.056-4.085-0.082c-10.417-0.177-16.956-0.006-17.089-1.017c-0.062-0.47,1.501-1.098,4.408-1.833   c0.727-0.184,1.537-0.374,2.427-0.571c0.891-0.181,1.865-0.332,2.912-0.504c2.095-0.321,4.486-0.724,7.148-0.929   c1.332-0.116,2.727-0.238,4.181-0.364c1.456-0.114,2.973-0.14,4.545-0.207c3.145-0.164,6.507-0.091,10.049-0.036   c7.075,0.253,14.852,0.955,22.921,2.318c8.06,1.417,15.622,3.36,22.374,5.49c3.356,1.134,6.548,2.19,9.457,3.398   c1.459,0.589,2.88,1.122,4.213,1.716c1.328,0.606,2.602,1.188,3.818,1.743c2.44,1.084,4.558,2.265,6.425,3.269   c0.929,0.512,1.796,0.981,2.575,1.45c0.773,0.483,1.473,0.934,2.096,1.35C319.433,349.812,320.695,350.927,320.48,351.349z"></path>
	<path style="fill:#f7eede;" d="M454.913,184.983c-1.201-0.099-2.136-1.426-3.033-3.214c-0.891-1.808-1.796-4.095-2.807-6.594   c-1.029-2.492-1.986-4.757-2.617-6.672c-0.613-1.903-0.876-3.506-0.088-4.418c0.755-0.881,2.544-0.833,4.699,0.466   c1.076,0.64,2.193,1.608,3.247,2.851c1.034,1.253,1.99,2.786,2.708,4.522c0.704,1.742,1.096,3.506,1.236,5.124   c0.119,1.625,0,3.099-0.319,4.309C457.312,183.794,456.069,185.083,454.913,184.983z"></path>
	<path style="fill:#8f766e;" d="M584.093,419.185c0.226,1.004-10.257,3.621-21.552,10.236   c-11.364,6.497-18.857,14.281-19.615,13.585c-0.331-0.295,1.126-2.653,4.189-5.889c1.523-1.623,3.481-3.418,5.779-5.267   c2.316-1.823,4.983-3.684,7.926-5.401c2.955-1.697,5.898-3.081,8.633-4.181c2.748-1.071,5.28-1.873,7.447-2.385   C581.231,418.84,584.002,418.752,584.093,419.185z"></path>
	<path style="fill:#8f766e;" d="M608.905,447.647c-0.266-0.327,2.089-2.879,6.708-6.025c0.584-0.383,1.195-0.784,1.832-1.202   c0.642-0.412,1.341-0.784,2.052-1.197c1.413-0.844,3-1.596,4.665-2.405c3.368-1.527,7.194-2.957,11.329-4.051   c4.145-1.057,8.183-1.671,11.869-1.977c1.848-0.103,3.6-0.22,5.246-0.17c0.822,0.014,1.614-0.001,2.375,0.047   c0.76,0.055,1.489,0.108,2.186,0.158c5.566,0.499,8.866,1.581,8.793,1.997c-0.08,0.519-3.471,0.3-8.865,0.431   c-0.674,0.021-1.379,0.042-2.115,0.065c-0.734,0.023-1.497,0.103-2.286,0.15c-1.579,0.072-3.256,0.29-5.019,0.472   c-3.518,0.464-7.356,1.142-11.319,2.152c-3.953,1.047-7.636,2.323-10.935,3.631c-1.629,0.7-3.2,1.325-4.614,2.031   c-0.712,0.343-1.417,0.644-2.069,0.982c-0.653,0.338-1.28,0.663-1.879,0.973C612.083,446.22,609.227,448.061,608.905,447.647z"></path>
	<path style="fill:#8f766e;" d="M645.156,417.416c-0.108,1.04-13.569-0.343-29.744,2.57c-16.202,2.757-28.392,8.633-28.847,7.691   c-0.2-0.389,2.603-2.379,7.62-4.718c2.503-1.179,5.577-2.38,9.061-3.512c3.495-1.096,7.406-2.101,11.573-2.845   c4.172-0.717,8.192-1.101,11.851-1.258c3.662-0.12,6.961-0.034,9.716,0.224C641.9,416.064,645.212,416.982,645.156,417.416z"></path>
	<path style="fill:#8f766e;" d="M636.48,449.898c-0.479-0.084-0.789-0.7-1.133-1.485c-0.34-0.795-0.742-1.777-1.283-2.815   c-0.553-1.032-1.138-1.917-1.604-2.646c-0.455-0.726-0.79-1.33-0.589-1.773c0.185-0.418,0.963-0.582,2.044-0.173   c1.07,0.395,2.366,1.437,3.186,2.985c0.818,1.549,0.949,3.207,0.673,4.314C637.503,449.43,636.93,449.98,636.48,449.898z"></path>
	<path style="fill:#8f766e;" d="M642.857,446.569c-0.484-0.008-0.889-0.532-1.32-1.223c-0.383-0.652-0.905-1.538-1.481-2.517   c-0.617-0.954-1.175-1.818-1.585-2.453c-0.424-0.695-0.711-1.293-0.5-1.729c0.197-0.416,0.928-0.576,1.938-0.229   c1,0.336,2.225,1.237,3.071,2.608c0.845,1.372,1.101,2.871,0.952,3.915C643.788,445.999,643.318,446.58,642.857,446.569z"></path>
	<path style="fill:#8f766e;" d="M626.093,428.769c-0.452,0.173-1.036-0.197-1.715-0.758c-0.681-0.569-1.482-1.324-2.394-2.12   c-0.917-0.789-1.779-1.475-2.439-2.067c-0.651-0.592-1.101-1.118-0.994-1.59c0.1-0.452,0.799-0.762,1.894-0.667   c1.084,0.088,2.535,0.642,3.789,1.727c1.253,1.087,2.008,2.444,2.25,3.504C626.733,427.87,626.526,428.606,626.093,428.769z"></path>
	<path style="fill:#8f766e;" d="M663.877,437.657c1.581-0.453,3.39-0.396,4.742,0.54c1.352,0.936,2.042,2.886,1.241,4.323   c-0.683,1.226-2.163,1.756-3.548,1.981c-1.351,0.22-2.733,0.245-4.091,0.075c-1.177-0.148-2.426-0.498-3.155-1.434   C656.944,440.421,662.009,438.192,663.877,437.657z"></path>
	<path style="fill:#8f766e;" d="M646.057,421.086c0.833-0.748,1.96-1.054,3.043-1.338c1.545-0.404,3.18-0.809,4.717-0.377   c1.538,0.432,2.868,2.034,2.407,3.563c-0.356,1.178-1.57,1.85-2.703,2.331c-1.367,0.581-2.826,1.071-4.308,0.962   C646.865,426.054,643.536,423.349,646.057,421.086z"></path>
</g>

            </g>
        </g>
    </g>
    
    <!-- ITEM 3 -->
    <g>
        <defs>
            <clipPath id="clip-path-id-viewbox-item-3">
                <rect x="0.0" y="0.0" width="70.563" height="70.532"/>
            </clipPath>
        </defs>
        <g transform="translate(592.0 142.0) rotate(0.0 46.0 46.0) scale(1.3037994416337173 1.3043724834117847)">
            <g clip-path="url(#clip-path-id-viewbox-item-3)" transform="translate(-0.0 -0.0)">
                <title>star</title><g id="Layer_2-i3" data-name="Layer 2"><g id="star-i3"><path d="M69.494,33.95a68.907,68.907,0,0,0-17.029-4.005,109.264,109.264,0,0,0-10.937-.732c-.194-3.574-.474-7.147-.883-10.764A103,103,0,0,0,37.373,1.441,1.961,1.961,0,0,0,36.016.084a1.981,1.981,0,0,0-2.467,1.327l-.008.03a103,103,0,0,0-3.273,17.008c-.409,3.638-.71,7.3-.883,10.936-3.638.173-7.3.474-10.936.883A103,103,0,0,0,1.441,33.541,2.151,2.151,0,0,0,.084,34.9a1.98,1.98,0,0,0,1.327,2.467l.03.009a103,103,0,0,0,17.008,3.272c3.574.409,7.147.689,10.764.883a109.264,109.264,0,0,0,.732,10.937A68.907,68.907,0,0,0,33.95,69.494a1.633,1.633,0,0,0,.925.926,1.679,1.679,0,0,0,2.153-.926,70.8,70.8,0,0,0,4.005-17.029c.43-3.574.624-7.148.71-10.765a91.1,91.1,0,0,0,10.765-.71,70.8,70.8,0,0,0,17.029-4.005,1.7,1.7,0,0,0,0-3.121Z" fill="#e3ce63"></path></g></g>
            </g>
        </g>
    </g>
    
    <!-- ITEM 4 -->
    <g>
        <defs>
            <clipPath id="clip-path-id-viewbox-item-4">
                <rect x="0.0" y="0.0" width="12.659" height="12.655"/>
            </clipPath>
        </defs>
        <g transform="translate(798.0 269.0) rotate(0.0 15.5 15.5) scale(2.448850620112173 2.4496246542868434)">
            <g clip-path="url(#clip-path-id-viewbox-item-4)" transform="translate(-0.0 -0.0)">
                
<path fill="#e3ce63" d="M9.374,3.77c-0.15-0.05-0.3-0.08-0.46-0.12s0-0.14-0.05-0.21c-0.327-1.087-0.852-2.104-1.55-3  c-0.053-0.073-0.117-0.137-0.19-0.19C6.627-0.145,5.903-0.063,5.508,0.434C5.507,0.436,5.505,0.438,5.504,0.44  c-0.698,0.894-1.22,1.912-1.54,3c-0.05,0.14-0.08,0.27-0.12,0.4s-0.27,0.07-0.4,0.12c-1.089,0.317-2.108,0.839-3,1.54  c-0.073,0.053-0.137,0.117-0.19,0.19c-0.396,0.489-0.32,1.207,0.169,1.603C0.43,7.299,0.437,7.304,0.444,7.31  c0.894,0.7,1.912,1.225,3,1.55c0.071,0.015,0.141,0.035,0.21,0.06c0,0.15,0.07,0.3,0.12,0.45c0.361,1.149,1.016,2.183,1.9,3  c0.416,0.38,1.054,0.38,1.47,0c0.884-0.817,1.539-1.851,1.9-3c0-0.09,0-0.17,0.07-0.26l0.26-0.07c1.149-0.361,2.183-1.016,3-1.9  c0.38-0.416,0.38-1.054,0-1.47C11.554,4.789,10.521,4.135,9.374,3.77z"></path>

            </g>
        </g>
    </g>
    
    <!-- ITEM 5 -->
    <g>
        <defs>
            <clipPath id="clip-path-id-viewbox-item-5">
                <rect x="0.0" y="0.0" width="26.5" height="26.498"/>
            </clipPath>
        </defs>
        <g transform="translate(1316.0 437.0) rotate(0.0 45.0 43.0) scale(3.3962264150943398 3.2455279643746695)">
            <g clip-path="url(#clip-path-id-viewbox-item-5)" transform="translate(-0.0 -0.0)">
                
<path fill="#e3ce63" d="M26.051,12.591c-2.01-0.953-4.156-1.59-6.36-1.89c-1.17-0.174-2.348-0.285-3.53-0.33  c-0.08-1.13-0.21-2.26-0.38-3.4c-0.291-2.164-0.807-4.293-1.54-6.35c-0.102-0.262-0.308-0.468-0.57-0.57  c-0.499-0.165-1.041,0.084-1.24,0.57c-0.731,2.058-1.251,4.186-1.55,6.35c-0.17,1.18-0.29,2.35-0.38,3.52  c-1.18,0.09-2.35,0.22-3.52,0.39c-2.167,0.295-4.298,0.811-6.36,1.54c-0.264,0.104-0.471,0.315-0.57,0.58  c-0.165,0.499,0.084,1.041,0.57,1.24c2.06,0.734,4.192,1.25,6.36,1.54c1.13,0.17,2.26,0.29,3.4,0.38  c0.042,1.182,0.149,2.36,0.32,3.53c0.299,2.203,0.94,4.345,1.9,6.35c0.073,0.162,0.201,0.292,0.36,0.37  c0.409,0.203,0.905,0.037,1.11-0.37c0.956-2.007,1.596-4.148,1.9-6.35c0.166-1.13,0.273-2.268,0.32-3.41  c1.138-0.042,2.274-0.149,3.4-0.32c2.204-0.3,4.35-0.937,6.36-1.89c0.157-0.081,0.284-0.211,0.36-0.37  C26.615,13.295,26.455,12.8,26.051,12.591z"></path>

            </g>
        </g>
    </g>
    
    <!-- ITEM 6 -->
    <g>
        <defs>
            <clipPath id="clip-path-id-viewbox-item-6">
                <rect x="0.0" y="0.0" width="26.5" height="26.498"/>
            </clipPath>
        </defs>
        <g transform="translate(1045.0 96.0) rotate(0.0 35.5 34.0) scale(2.6792452830188678 2.5662314136915994)">
            <g clip-path="url(#clip-path-id-viewbox-item-6)" transform="translate(-0.0 -0.0)">
                
<path fill="#e3ce63" d="M26.051,12.591c-2.01-0.953-4.156-1.59-6.36-1.89c-1.17-0.174-2.348-0.285-3.53-0.33  c-0.08-1.13-0.21-2.26-0.38-3.4c-0.291-2.164-0.807-4.293-1.54-6.35c-0.102-0.262-0.308-0.468-0.57-0.57  c-0.499-0.165-1.041,0.084-1.24,0.57c-0.731,2.058-1.251,4.186-1.55,6.35c-0.17,1.18-0.29,2.35-0.38,3.52  c-1.18,0.09-2.35,0.22-3.52,0.39c-2.167,0.295-4.298,0.811-6.36,1.54c-0.264,0.104-0.471,0.315-0.57,0.58  c-0.165,0.499,0.084,1.041,0.57,1.24c2.06,0.734,4.192,1.25,6.36,1.54c1.13,0.17,2.26,0.29,3.4,0.38  c0.042,1.182,0.149,2.36,0.32,3.53c0.299,2.203,0.94,4.345,1.9,6.35c0.073,0.162,0.201,0.292,0.36,0.37  c0.409,0.203,0.905,0.037,1.11-0.37c0.956-2.007,1.596-4.148,1.9-6.35c0.166-1.13,0.273-2.268,0.32-3.41  c1.138-0.042,2.274-0.149,3.4-0.32c2.204-0.3,4.35-0.937,6.36-1.89c0.157-0.081,0.284-0.211,0.36-0.37  C26.615,13.295,26.455,12.8,26.051,12.591z"></path>

            </g>
        </g>
    </g>
    
    <!-- ITEM 7 -->
    <g>
        <defs>
            <clipPath id="clip-path-id-viewbox-item-7">
                <rect x="0.0" y="0.0" width="12.659" height="12.655"/>
            </clipPath>
        </defs>
        <g transform="translate(1223.0 199.0) rotate(0.0 15.0 15.0) scale(2.369855438818232 2.370604504148558)">
            <g clip-path="url(#clip-path-id-viewbox-item-7)" transform="translate(-0.0 -0.0)">
                
<path fill="#e3ce63" d="M9.374,3.77c-0.15-0.05-0.3-0.08-0.46-0.12s0-0.14-0.05-0.21c-0.327-1.087-0.852-2.104-1.55-3  c-0.053-0.073-0.117-0.137-0.19-0.19C6.627-0.145,5.903-0.063,5.508,0.434C5.507,0.436,5.505,0.438,5.504,0.44  c-0.698,0.894-1.22,1.912-1.54,3c-0.05,0.14-0.08,0.27-0.12,0.4s-0.27,0.07-0.4,0.12c-1.089,0.317-2.108,0.839-3,1.54  c-0.073,0.053-0.137,0.117-0.19,0.19c-0.396,0.489-0.32,1.207,0.169,1.603C0.43,7.299,0.437,7.304,0.444,7.31  c0.894,0.7,1.912,1.225,3,1.55c0.071,0.015,0.141,0.035,0.21,0.06c0,0.15,0.07,0.3,0.12,0.45c0.361,1.149,1.016,2.183,1.9,3  c0.416,0.38,1.054,0.38,1.47,0c0.884-0.817,1.539-1.851,1.9-3c0-0.09,0-0.17,0.07-0.26l0.26-0.07c1.149-0.361,2.183-1.016,3-1.9  c0.38-0.416,0.38-1.054,0-1.47C11.554,4.789,10.521,4.135,9.374,3.77z"></path>

            </g>
        </g>
    </g>
    
</svg>