<svg id="visual" viewBox="0 0 900 600" width="900" height="600" xmlns="http://www.w3.org/2000/svg" xmlns:xlink="http://www.w3.org/1999/xlink" version="1.1"><path d="M0 231L21.5 227C43 223 86 215 128.8 225C171.7 235 214.3 263 257.2 266.7C300 270.3 343 249.7 385.8 243.3C428.7 237 471.3 245 514.2 238.3C557 231.7 600 210.3 642.8 190.2C685.7 170 728.3 151 771.2 167.8C814 184.7 857 237.3 878.5 263.7L900 290L900 601L878.5 601C857 601 814 601 771.2 601C728.3 601 685.7 601 642.8 601C600 601 557 601 514.2 601C471.3 601 428.7 601 385.8 601C343 601 300 601 257.2 601C214.3 601 171.7 601 128.8 601C86 601 43 601 21.5 601L0 601Z" fill="#7b5b92"></path><path d="M0 261L21.5 252.7C43 244.3 86 227.7 128.8 220.7C171.7 213.7 214.3 216.3 257.2 240.7C300 265 343 311 385.8 327.5C428.7 344 471.3 331 514.2 327C557 323 600 328 642.8 332.8C685.7 337.7 728.3 342.3 771.2 337.3C814 332.3 857 317.7 878.5 310.3L900 303L900 601L878.5 601C857 601 814 601 771.2 601C728.3 601 685.7 601 642.8 601C600 601 557 601 514.2 601C471.3 601 428.7 601 385.8 601C343 601 300 601 257.2 601C214.3 601 171.7 601 128.8 601C86 601 43 601 21.5 601L0 601Z" fill="#5f5082"></path><path d="M0 286L21.5 287.2C43 288.3 86 290.7 128.8 297C171.7 303.3 214.3 313.7 257.2 322C300 330.3 343 336.7 385.8 338.5C428.7 340.3 471.3 337.7 514.2 336C557 334.3 600 333.7 642.8 327C685.7 320.3 728.3 307.7 771.2 316.2C814 324.7 857 354.3 878.5 369.2L900 384L900 601L878.5 601C857 601 814 601 771.2 601C728.3 601 685.7 601 642.8 601C600 601 557 601 514.2 601C471.3 601 428.7 601 385.8 601C343 601 300 601 257.2 601C214.3 601 171.7 601 128.8 601C86 601 43 601 21.5 601L0 601Z" fill="#464570"></path><path d="M0 413L21.5 409.5C43 406 86 399 128.8 395.3C171.7 391.7 214.3 391.3 257.2 404.7C300 418 343 445 385.8 451.5C428.7 458 471.3 444 514.2 428.5C557 413 600 396 642.8 400.5C685.7 405 728.3 431 771.2 436.7C814 442.3 857 427.7 878.5 420.3L900 413L900 601L878.5 601C857 601 814 601 771.2 601C728.3 601 685.7 601 642.8 601C600 601 557 601 514.2 601C471.3 601 428.7 601 385.8 601C343 601 300 601 257.2 601C214.3 601 171.7 601 128.8 601C86 601 43 601 21.5 601L0 601Z" fill="#2f3a5d"></path><path d="M0 490L21.5 486.5C43 483 86 476 128.8 475.2C171.7 474.3 214.3 479.7 257.2 481.3C300 483 343 481 385.8 479C428.7 477 471.3 475 514.2 480.7C557 486.3 600 499.7 642.8 498.3C685.7 497 728.3 481 771.2 478.3C814 475.7 857 486.3 878.5 491.7L900 497L900 601L878.5 601C857 601 814 601 771.2 601C728.3 601 685.7 601 642.8 601C600 601 557 601 514.2 601C471.3 601 428.7 601 385.8 601C343 601 300 601 257.2 601C214.3 601 171.7 601 128.8 601C86 601 43 601 21.5 601L0 601Z" fill="#1c2e4a"></path></svg>