<svg id="visual" viewBox="0 0 900 600" width="900" height="600" xmlns="http://www.w3.org/2000/svg" xmlns:xlink="http://www.w3.org/1999/xlink" version="1.1"><path d="M0 367L21.5 371C43 375 86 383 128.8 373C171.7 363 214.3 335 257.2 331.3C300 327.7 343 348.3 385.8 354.7C428.7 361 471.3 353 514.2 359.7C557 366.3 600 387.7 642.8 407.8C685.7 428 728.3 447 771.2 430.2C814 413.3 857 360.7 878.5 334.3L900 308L900 0L878.5 0C857 0 814 0 771.2 0C728.3 0 685.7 0 642.8 0C600 0 557 0 514.2 0C471.3 0 428.7 0 385.8 0C343 0 300 0 257.2 0C214.3 0 171.7 0 128.8 0C86 0 43 0 21.5 0L0 0Z" fill="#7b5b92"></path><path d="M0 337L21.5 345.3C43 353.7 86 370.3 128.8 377.3C171.7 384.3 214.3 381.7 257.2 357.3C300 333 343 287 385.8 270.5C428.7 254 471.3 267 514.2 271C557 275 600 270 642.8 265.2C685.7 260.3 728.3 255.7 771.2 260.7C814 265.7 857 280.3 878.5 287.7L900 295L900 0L878.5 0C857 0 814 0 771.2 0C728.3 0 685.7 0 642.8 0C600 0 557 0 514.2 0C471.3 0 428.7 0 385.8 0C343 0 300 0 257.2 0C214.3 0 171.7 0 128.8 0C86 0 43 0 21.5 0L0 0Z" fill="#5f5082"></path><path d="M0 312L21.5 310.8C43 309.7 86 307.3 128.8 301C171.7 294.7 214.3 284.3 257.2 276C300 267.7 343 261.3 385.8 259.5C428.7 257.7 471.3 260.3 514.2 262C557 263.7 600 264.3 642.8 271C685.7 277.7 728.3 290.3 771.2 281.8C814 273.3 857 243.7 878.5 228.8L900 214L900 0L878.5 0C857 0 814 0 771.2 0C728.3 0 685.7 0 642.8 0C600 0 557 0 514.2 0C471.3 0 428.7 0 385.8 0C343 0 300 0 257.2 0C214.3 0 171.7 0 128.8 0C86 0 43 0 21.5 0L0 0Z" fill="#464570"></path><path d="M0 185L21.5 188.5C43 192 86 199 128.8 202.7C171.7 206.3 214.3 206.7 257.2 193.3C300 180 343 153 385.8 146.5C428.7 140 471.3 154 514.2 169.5C557 185 600 202 642.8 197.5C685.7 193 728.3 167 771.2 161.3C814 155.7 857 170.3 878.5 177.7L900 185L900 0L878.5 0C857 0 814 0 771.2 0C728.3 0 685.7 0 642.8 0C600 0 557 0 514.2 0C471.3 0 428.7 0 385.8 0C343 0 300 0 257.2 0C214.3 0 171.7 0 128.8 0C86 0 43 0 21.5 0L0 0Z" fill="#2f3a5d"></path><path d="M0 108L21.5 111.5C43 115 86 122 128.8 122.8C171.7 123.7 214.3 118.3 257.2 116.7C300 115 343 117 385.8 119C428.7 121 471.3 123 514.2 117.3C557 111.7 600 98.3 642.8 99.7C685.7 101 728.3 117 771.2 119.7C814 122.3 857 111.7 878.5 106.3L900 101L900 0L878.5 0C857 0 814 0 771.2 0C728.3 0 685.7 0 642.8 0C600 0 557 0 514.2 0C471.3 0 428.7 0 385.8 0C343 0 300 0 257.2 0C214.3 0 171.7 0 128.8 0C86 0 43 0 21.5 0L0 0Z" fill="#1c2e4a"></path></svg>