<?xml version="1.0" encoding="UTF-8" standalone="no"?>
<!DOCTYPE svg PUBLIC "-//W3C//DTD SVG 1.1//EN" "http://www.w3.org/Graphics/SVG/1.1/DTD/svg11.dtd">
<svg version="1.1" xmlns="http://www.w3.org/2000/svg" xmlns:xlink="http://www.w3.org/1999/xlink" viewBox="0 0 400 400" width="auto" height="auto"><defs><path d="M192.62 16.03L399.76 16.03L399.76 308.89L192.62 308.89L192.62 112.46L192.62 16.03Z" id="gewDukqDj"></path><path d="M243.48 308.89L192.62 261.84L243.48 308.89Z" id="dur9AxlO9"></path><path d="" id="ho5ADKoFJ"></path><path d="M267.12 308.89L192.62 238.83L267.12 308.89Z" id="aDed3aGp0"></path><path d="M218.12 308.89L192.62 285.33L218.12 308.89Z" id="ase6qzHIg"></path><path d="M256.31 308.89L192.62 250.83L256.31 308.89Z" id="f14uEf1EEd"></path><path d="M231.36 308.89L192.62 273.83L231.36 308.89Z" id="b34wEtu51v"></path><path d="" id="e2SJEyI8Fs"></path><path d="" id="clP8UCX89"></path><path d="M210.12 308.89L192.62 294.33L210.12 308.89Z" id="e52m3aG47a"></path><path d="M201.37 308.89L192.62 300.89L201.37 308.89Z" id="b32qprAyqI"></path><path d="M278.99 309.83L192.62 228.49L278.99 309.83Z" id="bj9OgGgDJ"></path><path d="M288.66 308.89L192.62 219.51L288.66 308.89Z" id="aVGtdHSh"></path><path d="M301.48 308.89L193.62 208.51L301.48 308.89Z" id="bzgPDrf0p"></path><path d="M313.45 308.89L192.48 196.31L313.45 308.89Z" id="h2AQR6dq3"></path><path d="M327.62 309.22L193.62 184.51L327.62 309.22Z" id="b7szoSVE7"></path><path d="M343.39 309.83L192.62 169.51L343.39 309.83Z" id="c3PLVRUwmK"></path><path d="M357.78 309.22L192.62 155.51L357.78 309.22Z" id="aa48OX400"></path><path d="M370.32 308.89L192.62 143.51L370.32 308.89Z" id="d3sFK6fSEC"></path><path d="M385.36 308.89L192.62 129.51L385.36 308.89Z" id="c1dm9GGg7u"></path><path d="M399.76 308.29L192.62 115.51L399.76 308.29Z" id="c5qJJwmOgB"></path><path d="M399.76 294.29L192.62 101.51L399.76 294.29Z" id="doePNtsWj"></path><path d="M398.76 280.29L193.77 89.51L398.76 280.29Z" id="a2AnjCeZdI"></path><path d="M398.76 266.29L193.77 75.51L398.76 266.29Z" id="av5xaiFMv"></path><path d="M399.76 254.29L192.62 61.51L399.76 254.29Z" id="c211uE5mVt"></path><path d="M399.76 241.72L192.62 48.94L399.76 241.72Z" id="b1FXq5hymj"></path><path d="M399.76 228.29L192.62 35.51L399.76 228.29Z" id="b8uC5OPfwk"></path><path d="M398.76 214.29L193.77 23.51L398.76 214.29Z" id="a1V3hrmusS"></path><path d="M399.88 201.89L199.62 15.51L399.88 201.89Z" id="b3yiB8SwhH"></path><path d="M400.52 188.52L214.62 15.51L400.52 188.52Z" id="f3nu9tJcTb"></path><path d="M400.52 174.56L229.62 15.51L400.52 174.56Z" id="bf2SU2qjo"></path><path d="M399.88 160.94L243.62 15.51L399.88 160.94Z" id="n3uwepwReK"></path><path d="M399.88 147.05L259.62 16.51L399.88 147.05Z" id="bE3oMrgKP"></path><path d="M399.88 133.95L272.62 15.51L399.88 133.95Z" id="aa5SBJ9QF"></path><path d="M400.63 118.89L290.62 16.51L400.63 118.89Z" id="c6w2YzlIP"></path><path d="M399.66 105.89L303.62 16.51L399.66 105.89Z" id="b9eSOmQHw"></path><path d="M400.55 91.9L318.47 15.51L400.55 91.9Z" id="aYvmBg8g"></path><path d="M399.76 79.93L331.62 16.51L399.76 79.93Z" id="fMHeVnomY"></path><path d="M400.08 68.05L343.62 15.51L400.08 68.05Z" id="b48tm4HGx"></path><path d="M400.52 55.51L358.62 16.51L400.52 55.51Z" id="f7PytiZTKA"></path><path d="M399.76 42.7L371.62 16.51L399.76 42.7Z" id="ozdIe8CVc"></path><path d="M399.26 30.06L383.62 15.51L399.26 30.06Z" id="a1UJfigQ2Q"></path></defs><g><g><g><g><use xlink:href="#gewDukqDj" opacity="1" fill-opacity="0" stroke="#7b5b92" stroke-width="3" stroke-opacity="1"></use></g></g><g><g><use xlink:href="#dur9AxlO9" opacity="1" fill-opacity="0" stroke="#7b5b92" stroke-width="2" stroke-opacity="1"></use></g></g><g><g><use xlink:href="#ho5ADKoFJ" opacity="1" fill-opacity="0" stroke="#7b5b92" stroke-width="2" stroke-opacity="1"></use></g></g><g><g><use xlink:href="#aDed3aGp0" opacity="1" fill-opacity="0" stroke="#7b5b92" stroke-width="2" stroke-opacity="1"></use></g></g><g><g><use xlink:href="#ase6qzHIg" opacity="1" fill-opacity="0" stroke="#7b5b92" stroke-width="2" stroke-opacity="1"></use></g></g><g><g><use xlink:href="#f14uEf1EEd" opacity="1" fill-opacity="0" stroke="#7b5b92" stroke-width="2" stroke-opacity="1"></use></g></g><g><g><use xlink:href="#b34wEtu51v" opacity="1" fill-opacity="0" stroke="#7b5b92" stroke-width="2" stroke-opacity="1"></use></g></g><g><g><use xlink:href="#e2SJEyI8Fs" opacity="1" fill-opacity="0" stroke="#7b5b92" stroke-width="2" stroke-opacity="1"></use></g></g><g><g><use xlink:href="#clP8UCX89" opacity="1" fill-opacity="0" stroke="#7b5b92" stroke-width="2" stroke-opacity="1"></use></g></g><g><g><use xlink:href="#e52m3aG47a" opacity="1" fill-opacity="0" stroke="#7b5b92" stroke-width="2" stroke-opacity="1"></use></g></g><g><g><use xlink:href="#b32qprAyqI" opacity="1" fill-opacity="0" stroke="#7b5b92" stroke-width="2" stroke-opacity="1"></use></g></g><g><g><use xlink:href="#bj9OgGgDJ" opacity="1" fill-opacity="0" stroke="#7b5b92" stroke-width="2" stroke-opacity="1"></use></g></g><g><g><use xlink:href="#aVGtdHSh" opacity="1" fill-opacity="0" stroke="#7b5b92" stroke-width="2" stroke-opacity="1"></use></g></g><g><g><use xlink:href="#bzgPDrf0p" opacity="1" fill-opacity="0" stroke="#7b5b92" stroke-width="2" stroke-opacity="1"></use></g></g><g><g><use xlink:href="#h2AQR6dq3" opacity="1" fill-opacity="0" stroke="#7b5b92" stroke-width="2" stroke-opacity="1"></use></g></g><g><g><use xlink:href="#b7szoSVE7" opacity="1" fill-opacity="0" stroke="#7b5b92" stroke-width="2" stroke-opacity="1"></use></g></g><g><g><use xlink:href="#c3PLVRUwmK" opacity="1" fill-opacity="0" stroke="#7b5b92" stroke-width="2" stroke-opacity="1"></use></g></g><g><g><use xlink:href="#aa48OX400" opacity="1" fill-opacity="0" stroke="#7b5b92" stroke-width="2" stroke-opacity="1"></use></g></g><g><g><use xlink:href="#d3sFK6fSEC" opacity="1" fill-opacity="0" stroke="#7b5b92" stroke-width="2" stroke-opacity="1"></use></g></g><g><g><use xlink:href="#c1dm9GGg7u" opacity="1" fill-opacity="0" stroke="#7b5b92" stroke-width="2" stroke-opacity="1"></use></g></g><g><g><use xlink:href="#c5qJJwmOgB" opacity="1" fill-opacity="0" stroke="#7b5b92" stroke-width="2" stroke-opacity="1"></use></g></g><g><g><use xlink:href="#doePNtsWj" opacity="1" fill-opacity="0" stroke="#7b5b92" stroke-width="2" stroke-opacity="1"></use></g></g><g><g><use xlink:href="#a2AnjCeZdI" opacity="1" fill-opacity="0" stroke="#7b5b92" stroke-width="2" stroke-opacity="1"></use></g></g><g><g><use xlink:href="#av5xaiFMv" opacity="1" fill-opacity="0" stroke="#7b5b92" stroke-width="2" stroke-opacity="1"></use></g></g><g><g><use xlink:href="#c211uE5mVt" opacity="1" fill-opacity="0" stroke="#7b5b92" stroke-width="2" stroke-opacity="1"></use></g></g><g><g><use xlink:href="#b1FXq5hymj" opacity="1" fill-opacity="0" stroke="#7b5b92" stroke-width="2" stroke-opacity="1"></use></g></g><g><g><use xlink:href="#b8uC5OPfwk" opacity="1" fill-opacity="0" stroke="#7b5b92" stroke-width="2" stroke-opacity="1"></use></g></g><g><g><use xlink:href="#a1V3hrmusS" opacity="1" fill-opacity="0" stroke="#7b5b92" stroke-width="2" stroke-opacity="1"></use></g></g><g><g><use xlink:href="#b3yiB8SwhH" opacity="1" fill-opacity="0" stroke="#7b5b92" stroke-width="2" stroke-opacity="1"></use></g></g><g><g><use xlink:href="#f3nu9tJcTb" opacity="1" fill-opacity="0" stroke="#7b5b92" stroke-width="2" stroke-opacity="1"></use></g></g><g><g><use xlink:href="#bf2SU2qjo" opacity="1" fill-opacity="0" stroke="#7b5b92" stroke-width="2" stroke-opacity="1"></use></g></g><g><g><use xlink:href="#n3uwepwReK" opacity="1" fill-opacity="0" stroke="#7b5b92" stroke-width="2" stroke-opacity="1"></use></g></g><g><g><use xlink:href="#bE3oMrgKP" opacity="1" fill-opacity="0" stroke="#7b5b92" stroke-width="2" stroke-opacity="1"></use></g></g><g><g><use xlink:href="#aa5SBJ9QF" opacity="1" fill-opacity="0" stroke="#7b5b92" stroke-width="2" stroke-opacity="1"></use></g></g><g><g><use xlink:href="#c6w2YzlIP" opacity="1" fill-opacity="0" stroke="#7b5b92" stroke-width="2" stroke-opacity="1"></use></g></g><g><g><use xlink:href="#b9eSOmQHw" opacity="1" fill-opacity="0" stroke="#7b5b92" stroke-width="2" stroke-opacity="1"></use></g></g><g><g><use xlink:href="#aYvmBg8g" opacity="1" fill-opacity="0" stroke="#7b5b92" stroke-width="2" stroke-opacity="1"></use></g></g><g><g><use xlink:href="#fMHeVnomY" opacity="1" fill-opacity="0" stroke="#7b5b92" stroke-width="2" stroke-opacity="1"></use></g></g><g><g><use xlink:href="#b48tm4HGx" opacity="1" fill-opacity="0" stroke="#7b5b92" stroke-width="2" stroke-opacity="1"></use></g></g><g><g><use xlink:href="#f7PytiZTKA" opacity="1" fill-opacity="0" stroke="#7b5b92" stroke-width="2" stroke-opacity="1"></use></g></g><g><g><use xlink:href="#ozdIe8CVc" opacity="1" fill-opacity="0" stroke="#7b5b92" stroke-width="2" stroke-opacity="1"></use></g></g><g><g><use xlink:href="#a1UJfigQ2Q" opacity="1" fill-opacity="0" stroke="#7b5b92" stroke-width="2" stroke-opacity="1"></use></g></g></g></g></svg>