<svg width="78" height="78" viewBox="0 0 78 78" fill="none" xmlns="http://www.w3.org/2000/svg">
<path d="M55.38 63.96H22.62C17.8815 63.96 14.04 60.1185 14.04 55.38V22.62C14.04 17.8815 17.8815 14.04 22.62 14.04H55.38C60.1185 14.04 63.96 17.8815 63.96 22.62V55.38C63.96 60.1185 60.1185 63.96 55.38 63.96Z" fill="#F7EEDE"/>
<path d="M47.58 49.53V52.65C47.58 52.8684 47.4084 53.04 47.19 53.04H33.15C32.9316 53.04 32.76 52.8684 32.76 52.65V49.53C32.76 49.3116 32.9316 49.14 33.15 49.14H36.27C36.4884 49.14 36.66 48.9684 36.66 48.75V37.05C36.66 36.8316 36.4884 36.66 36.27 36.66H33.93C33.7116 36.66 33.54 36.4884 33.54 36.27V33.15C33.54 32.9316 33.7116 32.76 33.93 32.76H43.29C43.5084 32.76 43.68 32.9316 43.68 33.15V48.75C43.68 48.9684 43.8516 49.14 44.07 49.14H47.19C47.4084 49.14 47.58 49.3116 47.58 49.53ZM39.39 23.79C38.8778 23.79 38.3707 23.8808 37.8975 24.0572C37.4244 24.2336 36.9944 24.4921 36.6323 24.8181C36.2701 25.144 35.9829 25.5309 35.7869 25.9568C35.5909 26.3826 35.49 26.8391 35.49 27.3C35.49 27.7609 35.5909 28.2174 35.7869 28.6432C35.9829 29.0691 36.2701 29.456 36.6323 29.782C36.9944 30.1079 37.4244 30.3664 37.8975 30.5428C38.3707 30.7192 38.8778 30.81 39.39 30.81C39.9022 30.81 40.4093 30.7192 40.8825 30.5428C41.3556 30.3664 41.7856 30.1079 42.1477 29.782C42.5099 29.456 42.7971 29.0691 42.9931 28.6432C43.1891 28.2174 43.29 27.7609 43.29 27.3C43.29 26.8391 43.1891 26.3826 42.9931 25.9568C42.7971 25.5309 42.5099 25.144 42.1477 24.8181C41.7856 24.4921 41.3556 24.2336 40.8825 24.0572C40.4093 23.8808 39.9022 23.79 39.39 23.79Z" fill="#E3CE63"/>
<path d="M55.38 64.74H22.62C17.4587 64.74 13.26 60.5412 13.26 55.38V22.62C13.26 17.4587 17.4587 13.26 22.62 13.26H55.38C60.5412 13.26 64.74 17.4587 64.74 22.62V55.38C64.74 60.5412 60.5412 64.74 55.38 64.74ZM22.62 14.82C18.3191 14.82 14.82 18.3191 14.82 22.62V55.38C14.82 59.6809 18.3191 63.18 22.62 63.18H55.38C59.6809 63.18 63.18 59.6809 63.18 55.38V22.62C63.18 18.3191 59.6809 14.82 55.38 14.82H22.62Z" fill="#111633"/>
<path d="M55.38 60.84H22.62C19.6092 60.84 17.16 58.39 17.16 55.38V22.62C17.16 19.61 19.6092 17.16 22.62 17.16H51.87C52.0853 17.16 52.26 17.3347 52.26 17.55C52.26 17.7653 52.0853 17.94 51.87 17.94H22.62C20.039 17.94 17.94 20.039 17.94 22.62V55.38C17.94 57.961 20.039 60.06 22.62 60.06H55.38C57.961 60.06 60.06 57.961 60.06 55.38V39.78C60.06 39.5647 60.2347 39.39 60.45 39.39C60.6653 39.39 60.84 39.5647 60.84 39.78V55.38C60.84 58.39 58.3908 60.84 55.38 60.84ZM60.45 37.44C60.2347 37.44 60.06 37.2653 60.06 37.05V33.93C60.06 33.7147 60.2347 33.54 60.45 33.54C60.6653 33.54 60.84 33.7147 60.84 33.93V37.05C60.84 37.2653 60.6653 37.44 60.45 37.44ZM60.45 32.76C60.2347 32.76 60.06 32.5853 60.06 32.37V30.81C60.06 30.5947 60.2347 30.42 60.45 30.42C60.6653 30.42 60.84 30.5947 60.84 30.81V32.37C60.84 32.5853 60.6653 32.76 60.45 32.76Z" fill="#111633"/>
<path d="M39.39 31.2C41.755 31.2 43.68 29.4505 43.68 27.3C43.68 25.1495 41.755 23.4 39.39 23.4C37.025 23.4 35.1 25.1495 35.1 27.3C35.1 29.4505 37.025 31.2 39.39 31.2ZM39.39 24.18C41.3252 24.18 42.9 25.5793 42.9 27.3C42.9 29.0207 41.3252 30.42 39.39 30.42C37.4548 30.42 35.88 29.0207 35.88 27.3C35.88 25.5793 37.4548 24.18 39.39 24.18ZM47.19 49.14H44.07C43.8555 49.14 43.68 48.9645 43.68 48.75V47.19C43.68 46.9747 43.5053 46.8 43.29 46.8C43.0747 46.8 42.9 46.9747 42.9 47.19V48.75C42.9 49.3951 43.4249 49.92 44.07 49.92H46.8V52.26H33.54V49.92H36.27C36.9151 49.92 37.44 49.3951 37.44 48.75V37.05C37.44 36.4049 36.9151 35.88 36.27 35.88H34.32V33.54H42.9V44.85C42.9 45.0653 43.0747 45.24 43.29 45.24C43.5053 45.24 43.68 45.0653 43.68 44.85V33.15C43.68 32.9347 43.5053 32.76 43.29 32.76H33.93C33.7147 32.76 33.54 32.9347 33.54 33.15V36.27C33.54 36.4853 33.7147 36.66 33.93 36.66H36.27C36.4845 36.66 36.66 36.8355 36.66 37.05V48.75C36.66 48.9645 36.4845 49.14 36.27 49.14H33.15C32.9347 49.14 32.76 49.3147 32.76 49.53V52.65C32.76 52.8653 32.9347 53.04 33.15 53.04H47.19C47.4053 53.04 47.58 52.8653 47.58 52.65V49.53C47.58 49.3147 47.4053 49.14 47.19 49.14Z" fill="#111633"/>
</svg>
