<svg width="40" height="40" viewBox="0 0 16 16" fill="none" xmlns="http://www.w3.org/2000/svg">
<path d="M1.97922 6.87724H11.4676L9.81094 5.22053L10.8652 4.16626L13.275 6.57602L14.3292 7.63029L13.275 8.68456L10.8652 11.0943L9.81094 10.04L11.4676 8.38334H1.97922V6.87724Z" fill="#55D4AB"/>
<path d="M10.8652 11.2449C10.8267 11.2449 10.7881 11.2302 10.7587 11.2008L9.70446 10.1465C9.64557 10.0877 9.64557 9.99247 9.70446 9.93358L11.1041 8.53396H1.97922C1.89594 8.53396 1.82861 8.46649 1.82861 8.38335V6.87725C1.82861 6.79412 1.89594 6.72664 1.97922 6.72664H11.1041L9.70446 5.32702C9.64557 5.26814 9.64557 5.17295 9.70446 5.11406L10.7587 4.05979C10.8176 4.0009 10.9128 4.0009 10.9717 4.05979L14.4357 7.52382C14.4946 7.58271 14.4946 7.67789 14.4357 7.73678L10.9717 11.2008C10.9423 11.2302 10.9038 11.2449 10.8652 11.2449ZM10.0239 10.0401L10.8652 10.8814L14.1163 7.6303L10.8652 4.37924L10.0239 5.22054L11.5741 6.77077C11.6172 6.81385 11.6302 6.87861 11.6068 6.93494C11.5836 6.99111 11.5285 7.02786 11.4677 7.02786H2.12983V8.23274H11.4677C11.5285 8.23274 11.5836 8.26949 11.6068 8.32567C11.6302 8.382 11.6172 8.44676 11.5741 8.48983L10.0239 10.0401Z" fill="#111633"/>
<path d="M11.7689 6.12419C11.7496 6.12419 11.7303 6.11681 11.7155 6.1022L10.9625 5.34915C10.9331 5.31978 10.9331 5.27204 10.9625 5.24267C10.9919 5.2133 11.0396 5.2133 11.069 5.24267L11.822 5.99572C11.8514 6.02509 11.8514 6.07283 11.822 6.1022C11.8074 6.11681 11.7881 6.12419 11.7689 6.12419ZM12.7478 7.10315C12.7285 7.10315 12.7093 7.09577 12.6945 7.08116L12.318 6.70464C12.2886 6.67527 12.2886 6.62753 12.318 6.59816C12.3473 6.56879 12.3951 6.56879 12.4245 6.59816L12.801 6.97468C12.8304 7.00405 12.8304 7.05179 12.801 7.08116C12.7864 7.09577 12.7671 7.10315 12.7478 7.10315ZM11.0158 10.04C10.9965 10.04 10.9772 10.0327 10.9625 10.0181C10.9331 9.98869 10.9331 9.94094 10.9625 9.91158L12.6192 8.25487C12.6486 8.2255 12.6963 8.2255 12.7257 8.25487C12.755 8.28424 12.755 8.33198 12.7257 8.36135L11.069 10.0181C11.0544 10.0327 11.0351 10.04 11.0158 10.04ZM13.3503 7.70559C13.331 7.70559 13.3117 7.69821 13.2969 7.6836L13.071 7.45769C13.0417 7.42832 13.0417 7.38058 13.071 7.35121C13.1004 7.32184 13.1481 7.32184 13.1775 7.35121L13.4034 7.57712C13.4328 7.60649 13.4328 7.65423 13.4034 7.6836C13.3888 7.69821 13.3695 7.70559 13.3503 7.70559Z" fill="#111633"/>
</svg>
