<svg width="36" height="36" viewBox="0 0 36 36" fill="none" xmlns="http://www.w3.org/2000/svg">
<path d="M18.18 10.1621C16.1272 10.1621 14.1585 10.9775 12.707 12.4291C11.2555 13.8806 10.44 15.8493 10.44 17.9021C10.44 19.9549 11.2555 21.9236 12.707 23.3751C14.1585 24.8266 16.1272 25.6421 18.18 25.6421C20.2328 25.6421 22.2015 24.8266 23.653 23.3751C25.1045 21.9236 25.92 19.9549 25.92 17.9021C25.92 15.8493 25.1045 13.8806 23.653 12.4291C22.2015 10.9775 20.2328 10.1621 18.18 10.1621V10.1621Z" fill="#DEAB9E"/>
<path d="M18.18 26.0021C13.7135 26.0021 10.08 22.3682 10.08 17.9021C10.08 13.4359 13.7135 9.80207 18.18 9.80207C22.6465 9.80207 26.28 13.4359 26.28 17.9021C26.28 22.3682 22.6465 26.0021 18.18 26.0021ZM18.18 10.5221C14.1106 10.5221 10.8 13.8326 10.8 17.9021C10.8 21.9715 14.1106 25.2821 18.18 25.2821C22.2494 25.2821 25.56 21.9715 25.56 17.9021C25.56 13.8326 22.2494 10.5221 18.18 10.5221ZM18 9.08207C17.8013 9.08207 17.64 8.92115 17.64 8.72207V6.20207C17.64 6.00299 17.8013 5.84207 18 5.84207C18.1987 5.84207 18.36 6.00299 18.36 6.20207V8.72207C18.36 8.92115 18.1987 9.08207 18 9.08207ZM18 29.9621C17.8013 29.9621 17.64 29.8012 17.64 29.6021V27.0821C17.64 26.883 17.8013 26.7221 18 26.7221C18.1987 26.7221 18.36 26.883 18.36 27.0821V29.6021C18.36 29.8012 18.1987 29.9621 18 29.9621ZM29.88 18.4421H27.36C27.1613 18.4421 27 18.2812 27 18.0821C27 17.883 27.1613 17.7221 27.36 17.7221H29.88C30.0787 17.7221 30.24 17.883 30.24 18.0821C30.24 18.2812 30.0787 18.4421 29.88 18.4421ZM8.63999 18.4421H6.11999C5.92127 18.4421 5.75999 18.2812 5.75999 18.0821C5.75999 17.883 5.92127 17.7221 6.11999 17.7221H8.63999C8.83871 17.7221 8.99999 17.883 8.99999 18.0821C8.99999 18.2812 8.83871 18.4421 8.63999 18.4421Z" fill="#111633"/>
<path d="M24.4721 11.8879C24.3799 11.8879 24.2878 11.8527 24.2176 11.7825C24.0768 11.6417 24.0768 11.4142 24.2176 11.2734L26.0381 9.45254C26.1788 9.31178 26.4064 9.31178 26.5471 9.45254C26.6879 9.5933 26.6879 9.82082 26.5471 9.96158L24.7266 11.7825C24.656 11.853 24.5639 11.8879 24.4721 11.8879ZM9.7074 26.6526C9.61524 26.6526 9.52308 26.6173 9.45288 26.5471C9.31212 26.4064 9.31212 26.1789 9.45288 26.0381L11.2734 24.2172C11.4142 24.0765 11.6417 24.0765 11.7824 24.2172C11.9232 24.358 11.9232 24.5855 11.7824 24.7263L9.96192 26.5471C9.89172 26.6173 9.79956 26.6526 9.7074 26.6526ZM26.4002 26.7606C26.3081 26.7606 26.2159 26.7253 26.1457 26.6551L24.2773 24.7867C24.1366 24.646 24.1366 24.4185 24.2773 24.2777C24.4181 24.1369 24.6456 24.1369 24.7864 24.2777L26.6548 26.1461C26.7955 26.2869 26.7955 26.5144 26.6548 26.6551C26.5846 26.7253 26.4924 26.7606 26.4002 26.7606ZM11.4415 11.8015C11.3494 11.8015 11.2572 11.7663 11.187 11.6961L9.34524 9.85429C9.20448 9.71353 9.20448 9.48602 9.34524 9.34526C9.486 9.2045 9.71352 9.2045 9.85428 9.34526L11.696 11.187C11.8368 11.3278 11.8368 11.5553 11.696 11.6961C11.6255 11.7663 11.5337 11.8015 11.4415 11.8015ZM22.0727 13.3596C22.0324 13.3596 21.9917 13.3463 21.9586 13.3186C21.83 13.2127 21.6972 13.1119 21.56 13.0165C21.4783 12.96 21.4582 12.8477 21.515 12.7663C21.5719 12.685 21.6839 12.6641 21.7656 12.7213C21.9107 12.8221 22.0518 12.9287 22.1875 13.041C22.2642 13.1044 22.2754 13.2178 22.212 13.2945C22.1764 13.3373 22.1249 13.3596 22.0727 13.3596ZM18.18 24.2021C14.7064 24.2021 11.88 21.3757 11.88 17.9021C11.88 14.4285 14.7064 11.6021 18.18 11.6021C19.2236 11.6021 20.2579 11.8627 21.1705 12.3559C21.258 12.4031 21.2904 12.5125 21.2432 12.5997C21.1961 12.6871 21.0874 12.7195 20.9992 12.6724C20.1388 12.208 19.1639 11.9621 18.1796 11.9621C14.9044 11.9621 12.2396 14.6268 12.2396 17.9021C12.2396 21.1774 14.9044 23.8421 18.1796 23.8421C18.279 23.8421 18.3596 23.9227 18.3596 24.0221C18.3596 24.1215 18.2794 24.2021 18.18 24.2021ZM19.4684 24.066C19.3853 24.066 19.3108 24.0081 19.2924 23.9235C19.2719 23.8263 19.3338 23.7309 19.431 23.71C19.5242 23.6902 19.6164 23.6682 19.7082 23.6437C19.8043 23.6175 19.903 23.6758 19.9282 23.7715C19.9534 23.8673 19.8965 23.9663 19.8004 23.9915C19.7032 24.0171 19.6049 24.0408 19.5062 24.0617C19.4933 24.0649 19.4807 24.066 19.4684 24.066ZM20.4455 23.769C20.3717 23.769 20.3029 23.7237 20.2763 23.6506C20.2424 23.557 20.2907 23.4537 20.3843 23.4198C20.6802 23.3122 20.795 23.2477 21.0715 23.0922L21.1781 23.2387L21.2479 23.4058C20.9704 23.5624 20.8307 23.6405 20.5067 23.7582C20.4869 23.7654 20.466 23.769 20.4455 23.769Z" fill="#111633"/>
</svg>
